<svg version="1.2" xmlns="http://www.w3.org/2000/svg" viewBox="0 0 364 364" width="364" height="364">
	<title>vecteezyglobe-iconsbk0222</title>
	<style>
		.s0 { opacity: .3;fill: #ffffff } 
		.s1 { fill: #000000 } 
		.s2 { fill: #ffffff } 
	</style>
	<g id="_Artboards_">
	</g>
	<g id="BACKGROUND">
	</g>
	<g id="OBJECTS">
		<g id="&lt;Group&gt;">
			<g id="&lt;Group&gt;">
				<path id="&lt;Path&gt;" class="s0" d="m358.9 185.1c0 98-79.4 177.3-177.3 177.3-97.9 0-177.3-79.3-177.3-177.3 0-97.9 79.4-177.3 177.3-177.3 97.9 0 177.3 79.4 177.3 177.3z"/>
			</g>
			<g id="&lt;Group&gt;">
				<path id="&lt;Path&gt;" class="s1" d="m135.6 200.7c0-0.1-0.1-0.2-0.1-0.3q0 0.2 0 0.4 0.1 0 0.1-0.1z"/>
				<path id="&lt;Path&gt;" class="s1" d="m156.8 162.9c0.4-0.1 1.4-0.1 1.5-0.9 0.1-0.8 0.2-1-4.9-3.8l-8.4-4.2c-0.3-0.1-1.2-0.5-2.4-0.9-2.5-0.9-2.7-0.9-11.6-1-0.8 0-0.8 0-3.9 1.2q0-0.1-0.1-0.2c-0.1 0-0.2-0.1-0.4-0.1-2.3-0.3-4.8 3-3.5 4.8 0.9 0.1 1.5-0.1 2.7-0.6 2.5-0.9 2.5-0.9 13.4 0.3 0 0 3.5 0.6 5.6 2.8-1.4 1-1.8 1.3-1.5 1.7 0.5 0.7 3.3 0.7 3.3 0.7 1.7 0 3.3-0.4 5-0.4 1.8 0 3.5 0.7 5.2 0.6z"/>
				<path id="&lt;Path&gt;" class="s1" d="m159.8 169.3c1.7 0.1 3.4-0.2 5.1-0.3 1.8 0 3.6 0 5.5 0 0.9-0.1 1.5-0.9 2.4-1.1 1.2-0.4 2.4 0 3.5-0.3 0.1 0 0.3-0.1 0.4-0.2 0-0.1 0-0.2 0.1-0.3-1.2-1.7-7.7-3.9-7.8-3.9-1.5-0.5-1.3-0.9-1.2-1.5q0 0 0 0 0 0 0 0 0 0 0 0 0 0 0 0 0 0 0 0 0 0 0 0 0 0 0 0 0 0 0 0c-4.9 0.1-4.9 0.1-5.4 0.5 0 0.3 0.1 0.6 0.3 0.8 0.7 0.8 1.6 1.4 2.3 2.2-0.5 0.3-0.8 0.4-1.9 0.5-3.5 0.5-7.4 1.1-6.9 2.2 0 0 1 1.2 3.6 1.4z"/>
				<path id="&lt;Path&gt;" class="s1" d="m178.8 168.4c0.5 0.6 1.6 1.2 6.6 0.9 1.4-0.1 3.8-0.3 4.2-1.4 0.1-0.4 0-0.6-0.2-1.1-2.7 0-5.4-0.1-8.1-0.1-3.4 0-2.5 1.7-2.5 1.7z"/>
				<path id="&lt;Path&gt;" class="s1" d="m189.6 166.8q-0.2-0.1-0.3-0.1 0 0 0.1 0.1 0.1 0 0.2 0 0 0 0 0z"/>
				<path id="&lt;Path&gt;" class="s1" d="m189 166.6q0.1 0 0.3 0.1 0 0 0 0 0-0.1-0.1-0.1-0.1 0-0.2 0z"/>
				<path id="&lt;Path&gt;" class="s1" d="m151.1 168q0 0-0.1 0 0.1 0 0.1 0z"/>
				<path id="&lt;Path&gt;" class="s1" d="m144 167.8c0.6 0.9 1.7 1.4 2 1.5 1.2 0.6 2.6 0.7 3.8 1.1 1 0.3 1.7 0.9 2.6 1.2 1.2 0.4 1.4 0 1.4-0.4 0.2-2-2.1-1.9-2.8-3.2-4.6-1.6-5.8-2.1-7.2-2.1-1.2 0 0.1 1.8 0.2 1.9z"/>
				<path id="&lt;Path&gt;" class="s1" d="m152.3 168.7c-0.3-0.3-0.6-0.5-1.2-0.7q0.6 0.3 1.2 0.7 0 0 0 0z"/>
				<path id="&lt;Path&gt;" class="s1" d="m144.7 23.4c0-0.1 0.1-0.2 0.1-0.3-0.1-0.1-0.2-0.1-1.2 0.3-2.2 1.1-2.4 1-2.9 0.8-0.5-0.1-1 0-1.4-0.2-0.6-0.1-0.9-0.7-1.4-0.7-0.7 0-1.3 0.1-1.9 0.1-1.2 0-1.3-0.3-1.3-0.5-0.1-0.3-0.2-0.3-0.6-0.3 0 0-2.4 0.1-2.5 0.1-0.7 0.2-1 0.9-1.7 1.1-0.6 0.1-1.3 0.1-1.9 0.3-0.2 0.1-0.4 0.2-0.5 0.2-0.1 0.1-2.9 1.4-2.8 2.5 0.1 0.2 0.1 0.5-0.2 0.7-1.2 0.7-2.7 0-3.8 1-0.4 0.4-0.8 1.1 1.2 1 0.6 0 1-0.1 4-1.1 1.4-0.4 1.4-0.4 1.5-0.4 0.1 0 0.5 0.2 0.5 0.3-0.1 0.3-0.3 0.5-1 1-1.4 1.1-1.7 2-1.8 2.2 0.2 0.2 2.2 0.3 6.5-2.1 0.6-0.3 0.7-0.4 1.1-0.4q0 0 0 0 0 0 0 0 0 0 0 0 0 0 0 0 0 0 0 0 0 0 0 0 0 0 0 0 0 0 0 0 0 0 0 0 0 0 0 0 0 0 0 0 0 0 0 0 0.1 0 0.1 0 0 0 0 0 0 0 0 0 0 0 0 0c1.1 0.1 1.9 1 1.9 1.1 0.5 0.8 0.5 0.8 1.6 0.8 0.6 1.6 0.6 1.6 1.3 1.6 0 0 0 0 2.6-1.6 1-0.6 2.2 0.1 3.3-0.4 0.8-0.4 0.8-0.4-2.6-2 0.9-0.8 0.7-2 1.3-2.8 0.7-0.9 1.8-1.4 2.5-2.3z"/>
				<path id="&lt;Path&gt;" class="s1" d="m182.1 19.4q0 0 0.1 0 0 0 0 0 0 0-0.1 0 0 0 0 0z"/>
				<path id="&lt;Path&gt;" class="s1" d="m255.9 39.2c-2.7-2.1-2.7-2.1-2.9-2-0.2 0-0.3 0.4-0.5 0.3-0.7-0.3-1.1-1-1.8-1.3-0.3-0.1-0.3 0.3-0.4 0.4-0.3 0.1-0.5 0.1-0.8 0.2-0.1 0.1-0.3 0.1-0.4 0.2-0.2 0.1-0.1 0.4-0.2 0.5-0.4-0.4-0.6-1-1.2-1.2-2.1-1.1-4.2-1.5-4.2-1.5q0 0 0 0c-0.1 0.3 1 1.9 1.8 1.9 0.6 0 0.7 0.1 1 0.4 0.4 0.4 0.4 1 0.8 1.4 0.3 0.4 0.8 0.4 1.1 0.9 0.3 0.3 0.4 0.6 0.5 1 2 0.6 2.1 0.6 3.3 1.5 1.4 1 1.7 1.2 2.1 1.3 0.9 0.2 3.6-1.7 2.6-3.2-0.2-0.3-0.7-0.7-0.8-0.8z"/>
				<path id="&lt;Path&gt;" class="s1" d="m51 128c12.3 29.3 19 37.6 19 37.6q0 0 0 0 0 0 0 0 0 0 0 0 0 0 0 0 0 0 0 0 0 0 0 0 0 0 0 0 0 0 0.1 0c0.4 0.2 1.1 0.2 1.5 0.5 0.1 0 12.6 6.4 15.9 8.6 4.5 3.1 10.9 0 14.9 4.6 5.1 5.7 15 0.5 19.2 8.3 0 0 6.2 4.8 9.4 7.2q0 0 0 0 0 0 0 0 0 0 0 0 0 0 0 0 0 0 0 0 0.1 0 0.1 0 0 0 0 0c0 0 0 0 0.7 0.5 0.6 1.4 0.6 1.4 7.4 2.2 1.3 2.1 1.4 2.3 4.2 2.8 0.3-0.3 0.8-0.7 1.2-1.1-0.2-0.5-0.5-1.1-0.7-1.6 0.9-0.4 2.1-0.7 3-0.9 0 0.3-0.1 0.7-0.1 1 0.3 0.3 0.8 0.8 1.1 1.2q0 0 0 0.1c0.4-0.4 0.9-0.8 1.3-1.2 3.1 0.6 5.8-1.6 8.8-1.5 1 0 7.1 4.8 5.2 9.8-2.6 6.7-10.8 7.5-14.1 13.4 1 0.1 2.3 0.2 3.3 0.4-3.7 13.2-4.2 14.8 2.5 33.5 2.3 6.2 10.1 5.3 13.4 10.3 1.1 1.7-0.3 3.3-0.4 5-0.5 7.9-4.7 15.1-4.6 23.1 0 7 3.3 13.8 1.8 21 0.3 0.4 0.7 0.9 1 1.3-0.1 0.5-0.3 1.1-0.4 1.6 0.3 0.3 0.7 0.8 1.1 1.2-0.1 0.1-0.1 18.9 13.9 18.9-0.4-2.7-2.5-4.7-3.3-7.3 0.9-1.4 2.3-2.6 2.9-4.2-0.5-0.1-1.1-0.3-1.5-0.4 0-0.9-0.3-2.3-0.8-3 0.3-0.9 1.2-1.9 2.1-2.3 0-0.5 0.1-1.2 0.1-1.7 0.5-0.2 1.2-0.4 1.7-0.6 0.1-0.3 0.2-0.6 0.3-0.8-1.7-1.6-1.5-2.5-0.5-4.1 0.4 0.2 1 0.5 1.4 0.7 0.9-1.4 0.8-3.2 1.7-4.6 5.2 0.4 5.2 0.4 9.6-4.3-0.3-3.2-0.3-3.2 0.3-5 3.4 0.6 3.4 0.6 5 0.7 15.7-14.9 15.7-14.9 16.3-16.4 4.2-9.5 15.8-6.3 21.8-12.6l26.8-30.4c2.7-3.9 2.3-8.7 3.7-13-0.2-0.3-0.4-0.7-0.6-1.1 0 0-2.9-0.7-6.4-1-1.1-3.6-14.9-4.5-15-4.5 0-2 0-2.6-1.8-4.5-3.5 2-3.5 2-4.5 2.1 0.4-0.9 0.8-2.2 0.8-3.2-0.5 0-1.1 0-1.6 0.1-0.1-0.5-0.3-1.1-0.4-1.6 7.7-12.3 7.7-12.3-13.2-18.1 0.3-1.1 0.7-2.5 1-3.5-1.7-1.6-4.2-0.9-5.9-2.3 0.4-0.9 0.8-2.1 1.1-3.1-2.2-0.5-4.5-0.5-6.6-1.2 0.2-0.5 0.4-1 0.6-1.5-11.5 3.8-24.3-0.4-35.5 5.6-1.7-2.2-1.7-2.2-2.9-2.1-6.5 0.5-10.4 7.4-17.4 6.9-6.1-0.4-12.1-3.4-18.5-1.5-0.4 0.1-1.2 0.2-1.6-0.1-8.1-6-10.6-7.7-8.8-11.7 0.4-0.9 1-2.5 0.5-3.4-4.5-7.2-13.2 0-18.2-5.3 0.2-1.1 0.7-2.5 1.1-3.5-2.9-4.4 4.1-6.4 4.7-10.2-4.7-0.5-4.7-0.5-14.9-0.5-3.4 6.4-6 11.3-14.6 3.4-5.7-5.4 3-11 0.4-16.6 4.7-12.1 18.7-2 26.2-8.6-0.5-0.3-1.1-0.7-1.6-1 0-0.5 0.1-1.1 0.1-1.6 2.7-1.9 2.7-1.9 6.6-1.7 0.4 0.9 0.9 2.1 1.3 3 1.2 0.2 1.2 0.2 4.9-0.3 0.4 0.3 0.8 0.8 1.1 1.2 0 0.1-1.1 9.4 2.6 11.6 4.1 2.2 4-2.2 3.9-5.2 3.8-3.7-2.3-10 3.2-13.2 5-2.9 11.4-2.7 15.2-7.7 0-0.1 7.1-11.9 8.6-15.2 10.4-1.4 12.3-18.7 25.4-14.4-4.5 2.6-4.6 2.7-4.9 5.2 0.5 0.3 1.2 0.6 1.7 0.9 17.1-8.3 17.1-8.3 17.7-9-2-1.8-2-1.8-8.1-3.5 0.2-1 0.4-2.3 0.6-3.3-0.9 0-2.2-0.4-3-0.9 0-0.4-0.1-1.1-0.1-1.5 4.9-2.1 10.7 1.4 15.4-2.3 1.8 4-1.4 7.5-1.3 11.3 1.5-0.2 1.5-0.2 9.5 1.6 0.2-2 1.6-3.5 2.3-5.3-1.2-2-1.2-2.1-6.9-5.2 0-0.1 1-2.3 3.1-5.8-2.2-3.7-2.2-3.7-1.8-6-6.3-3.8-9.9-10.4-15.7-14.6-1.2 1.2-1.7 2.8-2.6 4.2-0.5-0.2-1.1-0.5-1.6-0.7-0.8-2.3-0.1-4.7-1-6.9q0 0 0 0 0 0 0 0 0 0 0 0 0 0 0 0 0 0 0 0 0 0-0.1 0 0 0 0 0c0 0 0 0-1-0.6-6.8-1.8-6.8-1.8-13.9 1.2-0.3 1-0.5 2.4-0.5 3.5-0.7 0.6-1.7 1.6-2.3 2.4 1.1 2.7 1.1 2.7 1.1 4.8-1.7 1.4-1.7 1.4-7.1 2.1-1.1 2 0.1 4.5-1.7 6.3-6.4 6.6-5.7-0.5-5.1-6.3 0 0-9.4-2.4-12.8-3.4 0.8-0.7 1.7-1.7 2.2-2.6-0.9-0.6-2.3-1.3-3.3-1.8 16-13.9 22-11.8 23.1-11.3-0.8 0.7-1.8 1.8-2.5 2.7 0.4 0.2 1 0.6 1.4 0.9 2.9-0.7 6-0.7 8.9-1.3 0-0.4 0-0.4-2.2-4.5 6.9-1 7.5-4.1 7.7-5.4-2-2.9-2-2.9-7.8 1.3-2.6-2.2-2.6-2.2-4.2-2.2 0.2-0.9 0.8-2.1 1.3-2.9 0-0.4-0.2-1.1-0.2-1.5-4.2 0.6-4.7 1.3-5.9 3.3 1 0 2.3 0 3.2 0.1-10.6 3-10.6 3-12.5 2.5-0.8-2-0.9-2.1 0-4.7-0.5 0-1.2-0.1-1.7-0.2-0.3-0.4-0.6-0.9-0.9-1.3 1.7-5.5 1.7-5.5 5.5-9.1-0.1 0-10.6 2.3-7 10.1-3.3 3.4-5 5.3-10.1 5.4-0.1-0.5-0.4-1.1-0.5-1.6-2.7-0.5-5.4 0.7-8.1-0.2-0.2-0.5-0.4-1.1-0.5-1.6-5.4 0.7-10.4 2.7-15.7 3.5-1.7-2.3-4.6-2.9-6.8-4.5-10.6 2.8-19.6 9.4-30 12.5-0.1-0.5-0.3-1.1-0.5-1.5-15.1 6.5-20.8 13.4-26.4 20.1q0 0 0 0 0 0 0 0 0 0 0 0 0 0 0 0 0 0 0 0 0 0 0 0c0 0 0 0 1.3-0.7 9.8-0.2 17.5-9.4 27.9-6.3-3 3.4-3 3.4-8.1 6.7-0.1 0.5-0.1 1.2-0.2 1.7 0.5 0.2 1.1 0.4 1.5 0.5-9.3 11.9-9.3 11.9-10.2 12.1-5.8 13.2-18.2 22.6-22.2 37 0.3 0.4 0.7 1 0.9 1.5-1.2 3.7-1.2 3.7-1.2 4.9 4.8 2 3.1 17.2 3 17.3-0.4 0.2-1 0.5-1.4 0.6 0.4 2.9 5.8 12.3 10.8 15.5 0.4-0.2 1.1-0.5 1.5-0.6-8.5-21-8.5-21-6.6-25.6z"/>
				<path id="&lt;Path&gt;" class="s1" d="m280.2 66.6c-0.7-0.3-0.9-0.4-1.1-0.3 0.7 1.3 1.3 1.8 1.7 2.2 0.4 0.3 0.6 0.5 0.8 1 0.8 1.4 0.9 1.6 1 2.6 0 0.1 0 0.1 0 0.2 0 0 0.2 0.2 0.5 0.3 0.5 0.2 1.1 0.2 1.3 0.1 0.2-0.1 0.4-0.3 0.6-0.4 0.2 0 0.5 0.1 0.7 0q0.1 0 0.1-0.1c0.1 0 0.3-0.1 0.4-0.4 0 0 0.2-1 0.2-1.1q0-0.1 0-0.1c-0.3-1-0.8-1.9-1.1-2.9q-0.2-0.5-0.2-0.7c0-0.3 0.1-0.7-0.1-1.1-0.3-0.7-2.1-2-2.9-2-0.3 0-0.9-0.1-1.3-0.5-0.2 0.6-0.2 0.6-0.6 0.7 0.3 0.5 0.8 0.8 1 1.3 0.3 0.6 0.3 1.2 0.2 1.4-0.2 0.4-0.6 0.2-1.2-0.2z"/>
				<path id="&lt;Path&gt;" class="s1" d="m275.6 58.7c0-0.1 0.1-0.3 0-0.5q0 0 0 0-0.2 0.3 0 0.5z"/>
				<path id="&lt;Path&gt;" class="s1" d="m288.1 75.7c1-0.1 2 0.2 3-0.1 0.6-0.2 0.9-0.8 1.5-1 0.6-0.2 1.2 0.1 1.7-0.2 0 0 1.5-0.6 1.5-0.6 0.3-0.3 0.2-0.7 0.2-0.7-0.4-0.7-1-1.1-1.4-1.8-0.3-0.5 0.2-1 0-1.5 0-0.2-0.4-0.4-0.8-0.6-0.3-0.2-0.3-0.2-2-1.4-0.7-0.5-0.8-1.5-1.4-2.1-1.6-1.5-3.8-2.1-5-4.1-0.2-0.5 0.3-1-0.1-1.5q-0.1-0.1-0.1-0.2c-0.9-0.7-2.1-0.6-3-1.4-0.5-0.4-0.6-1.2-0.6-1.2 0-0.2 0-0.3-1.8-1.8q0 0 0 0 0 0 0 0 0 0 0 0 0 0 0 0 0 0 0 0 0.1 0 0.1 0 0 0 0 0c0 0 0 0-0.1 0 0 0-1.1 0.4-0.2 1.9-0.6 0.2-1.3-0.3-2-0.1 0.2 0.4 3.1 3.6 3.2 3.7 0.8 0.8 1 0.8 1.4 0.7 0 0 1.2 0 1.2 0.5 0 0.8 0 0.8 0.3 1.2 0.3 0.4 0.8 0.4 1 0.8 0.5 0.9 0.6 1 0.9 0.9 0.2 0 0.6 0 0.9 1 0.1 0 0.1 0.2 0.2 0.2 0.3 0.4 0.8 0.4 1 0.9 0 0.2 0 0.3-0.2 0.6-0.4 0.5-0.3 0.8 0.3 1.4 0 0 0.1 0.1 0.4 0.3 0.4 0.3 0.7 0.5 0.9 0.9-0.4 0.6-0.4 0.6-0.7 3-0.2 2.3-0.2 2.3-0.3 2.3z"/>
				<path id="&lt;Path&gt;" class="s1" d="m203.5 356.4c-4 0.9-5.5 1.4-8.5 2.6-6.7 2.7-13.8-0.2-20.6 1.2-3.3 0.6-6.6-0.8-9.9-0.4-3.1 0.5-6.5-1.8-9.4 0.7 8.6 1.3 17.5 1.9 26.5 1.9q3.4 0 6.8-0.1c2.7-1 6.8-2.5 13-4.7 1.3-0.5 1.3-0.5 2.1-1.2z"/>
				<path id="&lt;Path&gt;" class="s1" d="m185 7.8c0.8 1.9 2.7 0.9 4 1.6-1.3 0.6-4.4 2-4.4 2.7-0.1 2 2.9 0.4 4.3 0.7l7 3.1c0.9 0.7 0.9 0.7 1.3 3.4l3 2.1c0.5 0.1 0.5 0.1 1.2-0.9 1 0.1 1.9 1.5 2 1.7-0.6 0.6-0.9 0.7-5.5 1.3-0.4 1.6 3.7 4.2 6 2.1 1.5-1.4 1.9 1 1.9 1-1.4 0.8-3.4 0.4-4.4 2.2-0.2 0.4 1.4 5.5 1.6 5.8q0.3 0.5 2 0.6 0 0 0 0 0 0 0 0 0 0 0 0 0 0 0 0 0 0 0 0 0 0 0 0 0 0 0 0 0 0 0 0c1.5 0.2 3.4 2 4.7 3.6 1.8 2 2.7 4.6 4.4 6.7 4 5.3 4 5.3 4.2 5.4 1.4 0.7 0.7-2.4 2.3-2.4 2.6 3.3 2.6 3.3 2.8 3.4 0 0 1.7 1 2.4 0 0.1-0.1 0.1-0.3 0.2-0.4 0-0.2-0.1-0.5-0.2-0.7-0.8-2.2 1-4 0.6-6.1-0.2-1.2-0.1-1.3 0.7-1.4 0.2 0 0.6 0 0.7-0.2 0.9-2.1-2-2.7-2-4.4 0.1-0.2 0.1-0.4 0.2-0.6 0.2-0.7 0.2-0.9-0.3-1.9q-1.3-2.8 4.2-2.2c2 0.2 2 0.2 3.4-4.2 2-0.7 4.3 0.1 6.1-1.4 0-4-4.3-3.8-6.3-5.7 1.1 0.1 1.9 1.2 3.1 1.1-1.2-3.7-5.5-2.7-7.6-5 0.8 0.1 1.5 0.3 2.3 0.2-4.2-2.6-4.2-2.6-6-3.4 0.9 0.3 2.6 0.7 3.3 0.7-0.4-0.4-1.6-1.1-5.1-2.2-2-0.6-5.6-2-7.4-3-10-2-20.3-3.1-30.7-3.3q0 0 0 0z"/>
				<path id="&lt;Path&gt;" class="s1" d="m165.5 22.5q-0.1-0.1-0.3-0.1-0.1 0-0.1 0.1 0 0 0 0 0.1 0 0.4 0 0 0 0 0z"/>
				<path id="&lt;Path&gt;" class="s1" d="m147.9 18.8q0.1-0.1 0.3-0.1c0.8-0.1 1.6-0.4 1.9-0.6 0.1 0 0.2-0.1 0.3-0.2 0.6-0.6 0.2-1.5-1-1.6-1.4 0-2.4 1.1-3.7 1.5-0.9 0.3-1.9 0-2.8 0.3-0.7 0.2-1.1 0.5-1.6 1 0.2 0.5 1.5 0.3 3.4-0.1 0.9-0.1 1.4-0.2 1.9-0.3 0.4 0 0.9 0.1 1.3 0.1z"/>
				<path id="&lt;Path&gt;" class="s1" d="m143.3 16.1q0 0.1-0.1 0.1c-0.7-0.1-4.2 1.5-4.3 2-0.1 0.3 1.9 0.1 3.5-1 0.5-0.3 1-0.8 0.9-1.1z"/>
				<path id="&lt;Path&gt;" class="s1" d="m154 12.3c0 0 0 0-0.1 0-0.1 0-4.7 0.7-6 2-0.4 0.4 0.2 0.4 1 0.4q-0.1 0-0.2 0c1.4-0.5 3-0.8 4.3-1.6 0.1 0 1-0.5 1-0.8z"/>
				<path id="&lt;Path&gt;" class="s1" d="m157.2 16.5q-0.2 0-0.5 0c-3.8 0-4.2 1.8-4.2 1.8-0.1 0.6 1 1.3 1.5 1.4 0.7 0.2 1.5-0.4 1.8-0.7 0.7-0.7 0.9-1.7 1.4-2.5z"/>
				<path id="&lt;Path&gt;" class="s1" d="m151.9 22.5q-0.1 0-0.2 0c-0.4 0-0.5 0-0.8 0.1-0.3 0-0.5 0.3-0.7 0.4-0.3 0-0.6 0-0.8 0.1-0.6 0.2-0.8 0.3-1.1 0.7 0.2 0.1 0.3 0.3 0.3 0.6-1 0.3-2 0.3-3 0.6 0 0-0.3 0.3-0.5 0.6-0.1 0.3 0.3 0.4 0.4 0.5 0.5 0.1 1 0.1 1.5 0.2q0.3 0 0.6 0.1 0 0 0 0c0.2 0.4 0.1 0.5 0 0.7-0.1 0.1-0.1 0.1-0.1 0.2 0 0.1 0.7 0.3 1.2-0.1 0.2-0.1 0.2-0.1 0.6-1.2 0.3-0.7 1.2-0.8 1.7-1.3 0.1-0.1 0.2-0.3 0.3-0.5-1-0.6-0.3-1.2 0.6-1.7z"/>
				<path id="&lt;Path&gt;" class="s1" d="m171.2 8.2c0 1.1 0 1.1-0.3 1.4-0.6 0.6-1.3 0.5-1.5 0.2-0.5-0.5 0.3-0.9 0.3-1.5-0.7 0-3 1-3.4 1.3 0.1 0.8 0.1 0.8 0 1.1-0.4 0.2-1.7 1.1-1.8 1.5 0.9 0.1 3.4 0.1 3.4-1.1 0.3-0.2 0.3-0.2 0.6-0.2q0 0.1-0.1 0.2c0.2 0 0.3 0.1 0.4 0.2 0 0.1-0.1 0.3-0.2 0.4q0 0.1 0.1 0.2c-0.2 0.1-0.5 0.4-0.5 0.6 0.5 0.9 1.5 0.4 2.2 0.7 0.1 0.3 0.1 0.3-0.2 0.7-0.8-0.1-1.1-0.1-1.8 0.1 0 0.1-0.1 0.3-0.1 0.4-1.3 0.2-2.1 0.6-2.1 1.3 0.9 0.9 2.5 0.2 3.3 1.3q0 0.1 0 0.2c-0.1 0-6.5 1-7.3-1-0.6-1.3-1.9-1.2-2.3-0.5 0 0-0.3 4.7 5.9 4.3-0.6 0-1.3 0.1-1.8 0.2 3.1 0 4.1-0.3 5.2-0.6-0.4 0-0.9 0.1-1.2 0.1q0.6-0.1 1.2-0.1 0.1 0 0.3-0.1-0.1 0-0.2 0c0.1 0 0.2 0 0.4 0 0.3 0.2 0.7 0.2 1.1 0.4-0.4 0.5-0.5 1-0.5 1.9-1.4 1.2-3.2 0.2-4.7 0.8q0 0.1 0.1 0.2-0.1 0.1-0.2 0.1c-1.5-0.3-5.1 1.3-5.4 1.8-0.7 0.8 0.2 1.6 0.7 2.1 0.4 0.4 0.4 0.4 0.2 2.1q0.1 0.2 0.1 0.3c1.9 0 1.9 0 6.1-0.5 0.4 1.7 1.2 1.7 3.9 1 0.5-2.1 0.5-2.1 2.7-2.6 0.2-0.1 0.4-0.1 0.6-0.1 0.8 0.2 1.3 1.1 2.3 1 0.7 0 1.4-0.3 2.1-0.1 1 0.3 1.7 0.8 2.1 1 1.1 0.9 1.7 2.3 2.8 3.3 0.7 0.5 1.7 0.5 2.3 1.2 0.8 0.8-1 1.3-1.1 2.1-0.1 1 0.7 1.7 0.6 2.6 0 0.2-0.1 0.3-0.1 0.4 0 0.1-1 1.3-1.9 1.6-1.2 0.4-1.8 1.4-1.2 2.1 1.8 2.3 4.2-0.7 6.2 0.3 2.3 1.2 3.5 3.7 5.9 4.6 0.1 0.1 0.3 0.1 0.4 0.2 1.4 0.3 5.6 0.4 5.7-0.9-2.1-2.2-3.2-3-4.9-3.5 4.3 1.1 4.3 1.1 4.4 1 0.1-0.3 1.1-3.6-3.8-5.8-0.8-0.4-2.1-1-2.7-2.4-0.9-2 0.6-1.4 1.1-1.1 0.9 0.4 1.7 1.2 2.9 2.5 0.7 0.8 0.8 0.9 1.3 0.5 0.1-0.1 0.1-0.5-0.4-1.4-0.4-1-0.4-1.1-0.7-2-0.3-0.8-0.3-0.8-0.1-2.7q0-0.1 0-0.2c-1.1-0.8-2-1.9-3.2-2.5-1.4-0.6-3-0.5-4.3-1.1-0.3-0.6-0.3-0.6-0.8-0.9-0.7-0.4-0.4-1.3 0.4-1.7 0.1-0.5-0.3-1.1-2.4-2.2-1.2-0.7-2.8-0.2-4-1-1.2-0.8-2.3-1.8-3.6-2.4-0.4-0.2-0.6-0.3-0.7-0.3-0.9-0.3-0.9-0.3-5.5 0.8-1 0.3-1.1 0-1.3-0.2 4.8-1.1 5.9-2 6.1-2.1 0-0.1 1-2.6-0.5-2.7 0-0.6 0-0.6 0-0.7 0.8-0.3 1.6 0.2 2.4 0.1 0.2 0 0.5 0 0.6-0.4 0.3-0.6-0.4-1.2-0.1-1.9 0.4-0.6 1.3-0.2 1.6-1 0.2-0.7-0.2-1.6 0.1-2.3 0.1-0.4 0.3-0.7 0.5-1q-0.6 0-1.3 0-5.2 0-10.3 0.3-0.1 0-0.1 0.1z"/>
				<path id="&lt;Path&gt;" class="s1" d="m158.5 15.2c0.4-0.3 0.6-0.8 1.1-1.1 0.5-0.3 1.1-0.4 1.6-0.8 0 0 0.2-0.1 0.1-0.2 0.2 0 0.5 0.1 0.8 0.2q0.1 0 0.1 0c0.1-0.1 0.3-0.3 0.4-0.4 0.4-0.5 0.3-0.6-0.1-0.7 0-0.1-2.3-0.7-3.9-0.7 0.1 0.1 0.2 0.2 0.3 0.3-1.7-0.4-1.7-0.4-2.2 0.1 0.1 0.2 0.1 0.2 0.9 0.2 0.7 0.1 1.8 0.4 2.6 0.6-2.3 1.1-2.3 1.1-2.7 1.1-0.7 0-0.7 0-1 0.1-0.7 0.3-1.5 1.3-1.5 1.3-0.2 0.6-0.4 1.1 2.2 0q-0.1 0.1-0.1 0.1 0 0.1 0 0.1c0 0 0 0 0.2 0 0.2 0 0.7 0.1 1.2-0.2z"/>
				<path id="&lt;Path&gt;" class="s1" d="m145 15.1c-0.6 0.1-9.1 3-10.3 4.1q0.1 0 0.1 0c0.5-0.1 9-3.5 9.7-3.8 0.1-0.1 0.4-0.2 0.5-0.3z"/>
				<path id="&lt;Path&gt;" class="s1" d="m283.2 48.3c-0.4 0.1-0.9 0.3-1.3 0.4 0.7 2.4 7.2 8.7 8.6 9.3 0.1-0.8 0.1-2-0.1-2.8 1.2 0.6 2.4 1.3 8.2 7.2 0.3-0.2 0.7-0.6 1-0.9-2.2-2.6-2.2-2.6-11.8-13.1 0.2-0.3 0.4-0.8 0.6-1.2-0.7-1-0.7-1-3-3.2 3.1 0.1 16.3 12 16.4 12.1-0.4 0-0.9 0-1.3 0 0.3 1 0.3 1 5 5.3-0.8-0.5-1.9-1-2.7-1.5 1.5 2.6 4 4.3 5.6 6.9-0.9-0.1-2.1-0.5-2.8-1-0.7 0.5-1.6 1-2.3 1.4-3.3-1.2-3.3-1.2-9.5-8.2 0.4 3.1 0.4 3.1 5.8 8.1-0.4 0.6-0.8 1.7-0.8 2.5 0.3 0.2 0.7 0.6 0.9 0.9-0.3 0.2-0.8 0.5-1.1 0.7-0.2 1.8-0.2 1.8 0.9 5.6-0.3 0.1-0.8 0.3-1.2 0.5 0 0.4 0 0.9 0 1.4-0.8 0.3-1.8 0.6-2.6 0.7-0.1 0.4-0.2 1-0.3 1.4 4.6 3.3 6.7 4.8 8.2 12-1.9-1.5-8.1-2.6-10.1 0.6 2.9 5.3 2.9 5.3 5.8 17.3 2.1-0.7 2.1-0.7 5.8 2.7 0.6-0.5 1.3-1.3 1.6-2.1 1.2-0.5 2.6-0.2 3.8-0.7 1-4.3-1.1-9.1 2.1-13-0.5-2.3-2.5-3.9-3.1-6.1 1.3 0.4 2.5 1.4 3.8 1.8 0.1-0.9 0.3-2 0.5-2.9 0.4 0 0.9-0.1 1.3-0.2 4.3 5.2 10 12.2 15.6 17.4 0.5-1.6 0.5-1.6-1.6-5 0.4 0.2 0.9 0.4 1.3 0.6 0.2 0.2 0.2 0.2 0.2 0.2q0 0 0 0 0 0 0 0 0 0 0 0 0 0 0 0 0 0 0 0 0 0 0 0c-2.3-6.8-9.5-9.3-13.1-14.9 0 0 7.8 4 20.2 23.3-0.3-4-0.3-4-3.5-9.4 0.1-0.4 0.3-1 0.4-1.4 0.4 0.1 0.9 0.2 1.4 0.2 0-0.4 0-1 0-1.4 0.3 0.2 0.8 0.4 1.2 0.6 0.4 2.2 0.4 2.2 6.7 14.6 0-0.5-0.1-1.1-0.1-1.7-13.7-30.9-36-57.2-63.9-75.8-2.5-0.8-4.5-1.3-4.5-1.3 2.1 4.4 5.4 8 7.8 12.1z"/>
				<path id="&lt;Path&gt;" class="s1" d="m350 129.3c-1.3-0.7-4.3-2.5-5.1-3.8-0.3 0.3-0.7 0.7-1 0.9 0.9 3.3 0.9 3.3 1.1 4.3-5.2-1.2-5.2-1.2-13.5-14.9-2.4-3.9-2.5-4-6.6-2.8-3.3 1-3.1 5.2-5.9 6.7-5.1-2.2-5.1-2.2-5.7-3.6-0.1 0.9-0.1 0.9 0.1 7.4l-9.7 25.1c-3.1 8.7 6 18.3-1.8 26.7 3 5.7 4.5 12 7.8 17.6 3.1 5.3 9.2 8.4 11.1 14.7 3.4-0.8 14.7-4.4 14.8-4.5 0.3 0.8 0.6 1.9 0.9 2.8 2.1 0.5 2.4 0.4 4.1 0.2 3.2 8.5-6.4 15.1-3.4 23.6 2.2 0.8 8.1 3-27.9 72.4 0.4-0.1 1-0.3 1.4-0.4 0.5-0.1 0.5-0.1 0.5-0.1q0 0 0 0 0 0 0 0 0 0 0 0 0 0 0 0 0 0 0 0 0 0 0 0 0 0 0 0c0.2 0 5.6-3.4 12.9-10.9 21.9-29.5 34.8-66 34.8-105.6 0-19.5-3.1-38.2-8.9-55.8z"/>
			</g>
		</g>
	</g>
</svg>