<svg version="1.2" xmlns="http://www.w3.org/2000/svg" viewBox="0 0 364 364" width="364" height="364">
	<title>vecteezyglobe-iconsbk0222</title>
	<style>
		.s0 { fill: #000000 } 
		.s1 { fill: #ffffff } 
		.s2 { opacity: .3;fill: #ffffff } 
	</style>
	<g id="_Artboards_">
	</g>
	<g id="BACKGROUND">
	</g>
	<g id="OBJECTS">

		<g id="&lt;Group&gt;">
			<g id="&lt;Group&gt;">
				<path id="&lt;Path&gt;" class="s2" d="m361.6 184.5c0 98-79.4 177.3-177.3 177.3-97.9 0-177.3-79.3-177.3-177.3 0-97.9 79.4-177.3 177.3-177.3 97.9 0 177.3 79.4 177.3 177.3z"/>
			</g>
			<g id="&lt;Group&gt;">
				<path id="&lt;Path&gt;" class="s0" d="m10.8 217.1c-0.4-4.1-0.3-12.3-0.3-12.3 0.1-8.5 0.7-16.9 1-25.4 0-1.2 0-1.5 0-2.2-1.3 0.3-3.4 13.4-4.2 18.2 0.6 9.3 1.9 18.4 3.8 27.2 0-0.9-0.1-2.5-0.3-5.5z"/>
				<path id="&lt;Path&gt;" class="s0" d="m118.5 157.7c-0.4-1.4 0.1-2.8 0-4.1 0-0.2-0.1-0.4-0.1-0.5-0.1-0.5-0.1-0.6-1.6-3.4-0.5-0.8-1-1.1-1.3-1.3-0.7-0.4-0.9-0.5-0.8-1 0-0.3 0.5-2.3 1-3.1 0.4-0.5 0.1-1 0-1.2-0.1 0-4.2-5-4.9-5.4-0.7-0.4-1-0.6-1.4-1.1-0.4-0.4-0.6-1-0.9-1.4-3-5.2-3-5.2-8.5-10-0.3 1.3-0.2 2.2 0 2.8q0 0.1 0.1 0.3c0.6 1.6 1.6 3.1 3 5.2 0.8 1.4 0 3.1 0.7 4.5 1.9 3.8 1.9 3.8 2.1 4 0.5 0.3 0.5 0.5 0.7 0.8l1.3 4.3c-0.1 1.2-0.1 1.9 0.1 2.5 0.4 1.5 0.7 2.4 7 9.9 1.5 1.7 1.8 1.8 3 1.9q0-0.5 0.1-1c0.6 0.2 0.7 0.3 1.1 0.2 0-0.2 0-0.2-0.7-2.9z"/>
				<path id="&lt;Path&gt;" class="s0" d="m183.5 45.1l-6.3 4.9c-0.7 1.1 1.9 0.1 2.7 0.6 0.5 0.3 0.5 0.5 1.1 2.9 1.2-0.5 1.8-1.7 2.7-2.4 0.5-0.4 1.2-0.6 1.7-1 0.2-0.1 0.3-0.2 0.4-0.3 0.5-0.4 0.5-0.7 0.5-1.1 1.8-0.6 2.7-0.7 3.8-0.5 1 0.1 1.3 0 2-0.4 1.5-0.9 0.9-2.9 2.1-4 1.1-1 2.9-1 4-2.2 0.9-1.1 0.1-4 0.1-4-0.5-1.2-0.5-1.2 0-1.7 0.5-0.4 0.6-1.3 0.6-1.3 0-0.3-2.2-5.3-3.7-5.5-0.6 0.2-0.5 1.9 0 3 0.3 0.7 0.3 0.9 0 1.6-0.6 1.3-0.2 3-1.3 4.2-0.2 0.3-0.3 0.4-0.5 0.8-0.4 0.6-0.7 1.3-2 1.4-0.4 0-0.8 0.1-0.9 0.2-0.6 1.1 1.7 1.7 0.7 2.5 0 0 0 0-3.1-0.2q0 0 0 0 0 0 0 0 0 0 0 0 0 0 0 0 0 0 0 0 0 0 0 0 0 0 0 0 0 0 0 0c-1.1 0.1-1.1 0.1-4.2 2.2-0.1 0.1-0.2 0.2-0.4 0.3z"/>
				<path id="&lt;Path&gt;" class="s0" d="m198.7 23c-0.8-0.4-1.7-0.2-2.5-0.5-0.7-0.3-1.2-0.9-1.8-1.2 0 0-0.3-0.1-0.5-0.1-0.3 0-0.2 1.1-0.2 1.1 0.1 0.4 0.3 0.7 0.5 1 0.1 0.4 0.5 1.9 0.5 2.1-0.1 0.3-0.7 0.8-1.1 0.7-0.2 0.7-0.4 1.4-0.5 2.6q0 0 0 0 0 0 0 0c1.2-0.3 1.5-0.6 1.7-1.4 0.3-1.1 1-1.2 1.3-1.2 0.3 0 0.6 0.1 0.9 0.2 0.4 0.2 0.8 0.4 1 0.2 0.2-0.1 0.2-0.1-0.4-1.5-0.4-0.8 0.1-0.9 0.7-1 0.3 0 0.8-0.1 0.8-0.4 0.1-0.2-0.1-0.5-0.4-0.6z"/>
				<path id="&lt;Path&gt;" class="s0" d="m188.7 14.8c-0.1-0.3-0.2-0.6-0.3-0.8q-0.1-0.4-0.3-0.7c-0.7-1.6-0.7-1.7-0.8-2.1 0-0.3 0-0.5 0-0.7 0 0-0.1-0.2-0.3-0.2-0.1 0-0.2 0-0.2 0.1l-0.3 1.2q0 0.1 0 0.1c0 0 0.4 0.8 0.8 1.4 0.3 0.4 0.4 0.6 0.6 1 0.4 1 0.1 1.3-0.2 1.5-0.6 0.6-0.6 0.8-0.3 2.5 0.2 1-0.4 1.8-0.4 2.8 0 0.1 0.1 1.2 1.5 0.8 1-0.3 0.8-0.8 0.5-1.4-0.9-1.7-0.9-1.8-0.9-2.5 0.1-0.9 0.3-1 0.8-1.4 0.1-0.1 0.3-0.2 0.4-0.4 0.3-0.5-0.4-0.8-0.6-1.2z"/>
				<path id="&lt;Path&gt;" class="s0" d="m235.7 225.8c-0.5 1.6-0.5 1.6-1.2 2l-4.1-5.5c-0.9-1.4 1.7-3 0-4.1-3.6-2.5-3.6-2.5-3.7-3.1 0 0-0.5-3.3-1.2-4.6-1.1-2.2-3.6-2.4-5.2-3.9-2.7-2.5-0.2-6.6-2.9-9 0.2-3.4 0.7-11.2-4.9-8.8 0 0-4.2-7.3-4-10.1 0-1.5-0.8-1.6-1.5-1.8-1.7 0.2-1.8 1.6-1.9 2.3l-2.4 14.6c-0.1 0.5-0.2 1.1-0.4 1.6-0.7 1.8-3.3 2.9-4.7 3.5-13.2-7.8-13.2-7.8-13.2-9 0 0 0.9-5.2 2.6-6 0.3-0.1 2.5-2 1.2-3.8-2.1-0.1-4.3 0.7-6.4 0.5-2-0.3-2.8-3.2-5.3-2.4l-6.1 2.8c-0.4 0.2-1 0.6-1.3 0.9-2 1.6-2.8 3.9-4.4 5.8 0.2 0.5 0.2 0.5 1.3 1.4 1.2 1 1.2 1-6.1 2 0.5-2.1 0.5-2.1-2.3-3.8-0.1 0-8.5-0.1-7.8 8.1-1.2 0.7-2.7-0.2-3.9 0.6 0.7 3.3 0.7 3.3-0.4 3.4-0.6-0.7-0.9-1.7-1.7-2.2-0.6-0.4-1.7 0-2.3 1.4-0.7 1.6 1.6 2.3 1.3 3.9-0.2 1.3-2.1 0.7-2.3 2 0 0.3-0.1 0.6-0.1 0.8-0.2 2.3-1.9 2.7-4.1 3.1l-9.9 3.7-3.4 3.4c-0.4 0.4-0.4 0.4-0.4 3.7-0.2 0-0.4 0.1-0.6 0.1-0.4-0.4-0.5-1-0.8-1.6-0.2 0-0.4 0.1-0.6 0.1-0.5 1.6 1.1 2.6 1.1 4 0 1.5-1.6 2.5-1.2 4.2 0.1 0.4 0.3 1.2 3 3.6 0.9 0.8 0.9 0.8 0.8 1.7-1.2-0.3-2.1-1.6-3.5-1.1 2.6 3.5 6.1 6.2 8 10.1 5.7 11.7 4.6 12.1 3 12.6-1.1 2.4 6.8 4.2 7.5 4 2.7-0.6 3.6-3.3 5.6-4.8 2.4-1.9 5.2 0.8 7.6-0.6 1.8-1 2.3-3.2 4-4.3 2.2-1.3 15.6-5.2 18.9-2.8 1.7 1.2 4 1.3 5.2 3.1 4.1 6.2 4.1 6.2 4.7 6.2 0-0.1 4.1-5.1 4.6-5.7 0.2 0.1 0.5 0.1 0.7 0.1 0 0-1 4-3.3 5.7 1.5 1.9 2.6-0.1 3.6-1.9 0.4 3.1 0.4 3.1-4.4 3.9-0.1 0.2-0.3 0.4-0.4 0.5 2.2 2.2 4.3-0.8 6.5-0.6 3.3 0.4 1.7 4.4 2.9 6.4 0.3 0.5 1 1.5 3.4 2.3l4.6 1.3c1.1 0.3 1.6-1.1 2.7-0.9 1.6 0.3 2.3 2 3.8 2.3 0.2 0 0.4 0 0.6 0.1 2 0.1 1.9-2.3 3.2-2.8 1.3-0.5 2.5 0.4 3.8-0.2 0.2-0.1 0.4-0.2 0.5-0.3 1.9-1.6 1.5-4.2 2.6-6.1 1.3-2.1 3.7-3.2 5.2-5.2 1.3-1.8 2.9-3.3 4.1-5.1l3.9-7.2c1.3-2.7 1.3-2.7 0.2-5.9-1-2.9 1.3-4.8 2-7.2 0-0.4-0.2-1-0.4-1.4z"/>
				<path id="&lt;Path&gt;" class="s0" d="m226.8 271.7c-0.3-0.1-0.4-0.1-0.4-0.1-1.4 0-2.6 1-4 0.9-1.1 0-1.7-1.1-2.8-1.2q0 0-0.1 0c-0.3 0-0.5 0.1-0.7 0.2 0 0.6-0.2 1.3-0.1 1.9 0.1 0.4 0.5 0.9 0.9 1.3 0.7 0.8 0.6 1 0.6 1.2-0.5 1.2-0.5 1.2-0.4 1.6 0.1 0.2 1.8 2.8 2.9 2.3 0.6-0.3 0.3-0.9 0.6-1.3 0.1-0.2 0.3-0.3 0.5-0.4 0.4-0.2 0.6-0.3 1.1-0.9q0.1-0.1 0.1-0.1c2.4-2.9 2.4-3.1 2.5-3.3 0.5-1.1-0.3-1.9-0.7-2.1z"/>
				<path id="&lt;Path&gt;" class="s0" d="m137.4 125.4c0-0.1-0.2-0.3-1 0.3q-0.1 0-0.1 0.1c-1.6 1.2-2.5 3.1-4 4.4-1.3 1.1-3.2 1.3-4.5 2.6 0 0-0.8 1.6-1 3.2 0 0-2.5 0.3-4.4-0.6q0-0.1 0-0.2c-1.4 0.5-1.6 2.4-1.4 3.1q0-0.1 0.1-0.1c0.4 1.3-0.1 2.8 0.9 4 0.3 0.4 0.1 1.3 0.8 1.3 0.6 0.1 1 0.1 1.3 1.1 0.2 0.6-0.1 1.1 0 1.7 0 0.5 0.5 0.9 0.5 1.4 0.1 0.4 0.1 0.9 0.1 1.3 0.4-0.1 0.9-0.3 1.3-0.3q0.1 0 0.1 0 0 0 0 0 0.1 0 0.1 0 0 0 0 0 0.1 0 0.1 0 0 0 0 0 0.1 0 0.1 0 0 0 0.1 0c0.7 0 1.4-0.3 2.1-0.4 0.4 0.4 0.3 1.2 1.1 1.4 0.1 0.1 1.2-0.3 1.5-0.7 0-0.2 0.5-0.9 1.1-0.9 0.9 0 1.6 0.8 2.5 0.9q0 0 0 0 0 0 0 0 0 0 0 0 0 0 0 0 0 0 0 0 0 0 0 0 0 0 0 0c0 0 0 0 0.2 0 1-0.3 1-0.3 1.7-0.4 0.2 1 0.8 2 1.2 1.9 1.6-0.1 2.4-1.6 3.7-2.3-0.1-1-0.1-1 1-1.9-1.2-2.6-0.4-3.4 0.1-3.8q0 0-0.1 0c0.8-0.9 2.7-1 2.3-2.5-0.6-2.1-0.6-2.1 0.2-3 0.9-0.9 0.9-0.9 3.9-1.4q0.1-0.1 0.3-0.1c-0.2-0.4-0.4-0.5-1.2-0.7-0.7-0.2-0.8-0.2-2.7-1.9 1.8-1.4-2.4-2.5-1.7-4.4 0.4-0.1 0.9 0.1 1.3-0.1 0.5-0.2 0-1 0.6-1.2 0.6-0.2 1.2-0.1 1.7-0.5q0-0.1 0.1-0.2c0.6-0.7-0.8-1.1-0.9-1.8 1.9-0.5 2-0.5 2.7-1-0.4-0.5-1.1-0.2-1.6-0.5-0.3-0.2-0.2-0.6-0.4-0.9-0.5-0.1-0.9 0.3-1.4 0.1q0 0 0.1-0.1c-0.3-0.2-0.4-0.2-1 0-0.2-0.4-0.1-0.8-0.3-1.2-0.3-0.3-0.8-0.3-1.1-0.7-0.1-0.2-0.2-0.5-0.3-0.7-0.2 0.1-0.3 0.1-0.4 0.6-0.3-0.1-0.6-0.3-1.1 0.1-0.8 0.6-0.9 1.6-1.4 2.4-0.5 0.7-1.5 0.7-2 1.3-0.4 0.6 0.6 0.9 0.4 1.4-0.3 1-0.8 0.5-1.3-0.1z"/>
				<path id="&lt;Path&gt;" class="s0" d="m227.8 157c1.5-0.8 2.1-1.2 1.7-4-7.8 0-7.8 0-9.9-2.3-4.5-5.1-5.2-5.7-7.4-6.2-0.4-0.5-14-5.3-14.1-5.3-0.6-0.2-0.6-0.2-5.4 3.7-0.7 0.6-1 1.5-1.6 2.2-0.1 0.1-0.3 0.3-0.5 0.3-1.6 0.1-1.6-1.5-2.4-2.3 0 0.2-0.1 0.4-0.2 0.6q-0.1-0.1-0.3-0.1c-0.5-1.9 0.7-4-0.6-5.8l-4.6-1.1c-2.2 0.1-3.1 2.2-4.7 3.1 0.1 0.1 0.3 0.2 0.4 0.2 0.8 0.4 1.7-0.1 2.5 0.3 0.6 0.3 0.3 1.2 0.9 1.5 0.1 0.1 0.3 0.1 0.4 0.2 0.2 0.1 0.8 0.1 1.2 0.1q0 0 0 0 0 0 0 0 0 0 0 0 0 0 0.1 0 0 0 0 0 0 0 0 0 0 0 0 0c0 0 0 0 0.2 0 0.9 0 1.7-0.2 2.6-0.2 0.1 0.2 0.2 0.5 0.2 0.7 0 0-1.9 1.5-5.6 1.7 0.8 0.8 2.1 0.2 2.8 1.2 0.5 0.7-0.6 2.1 0.5 2.4 1.5 0.3 1.1-1.9 2.1-2.4 0 0.9 0 0.9 0.1 1.1 0.4 0.2 0.9 0.3 1.5 0.3 0.6-0.1 0.9-0.1 1 0.4 0 0.1 0.5 1.8 2.3 1.6l8.2 2.3c0.3 0.2 2 6.5 2 6.5 0.1 0.3 0.1 0.3-0.9 2.1 0.1 0.1 0.2 0.2 0.2 0.2 1.5-0.3 1.5-0.3 3.4-1.1 0.4 0.2 0.4 0.2 0.5 1.3 0.7 0.2 2 1.4 2.3 1.8 0.5 1 5.4 1.9 6.1 1.8 1.8-2.6 3.6-5 6.3-4.5 0.3 0.1 3.6 1.9 3.6 1.9 1.1 0.7 1.5 2 2.4 2.8 1.4 1.1 3 1.8 4.3 2.9q0.1 0.1 0.2 0.2c0.7 0.6 4.6 2.1 7.5 1.7 0-0.1 0.1-0.2 0.1-0.3 0-0.1-5.4-5.5-6.6-5.9-2.2-0.7-2.9-2.2-3.8-4-0.4-0.8 0.5-1.4 1-1.6z"/>
				<path id="&lt;Path&gt;" class="s0" d="m163.4 142.9c-0.4-0.1-0.7-0.3-1.1-0.4-0.4-0.1-0.6-0.1-0.8-0.1-0.2 0-0.8 0-1 0.2-0.1 0.1-0.2 0.6 0.5 0.8 0.8 0.3 1.6 0 2.3 0 0.1-0.1 0.1-0.2 0-0.4q0 0 0-0.1c0 0 0 0 0.1 0q0 0 0 0z"/>
				<path id="&lt;Path&gt;" class="s0" d="m165.9 142.8c-0.6-0.1-0.7-0.1-1.1-0.1-0.3 0-1 0-0.8 0.5 0.1 0.1 0.3 0.1 0.5 0.2 0.4 0 0.8-0.1 1.2-0.1q0.2 0 0.4 0c0.1 0 0.5 0 0.6-0.1 0.1-0.3-0.6-0.3-0.8-0.3q0-0.1 0-0.1z"/>
				<path id="&lt;Path&gt;" class="s0" d="m171.2 130.9c-0.5 0-1.5 1.8-1.5 2.2-0.1 0.1-0.1 0.1 0.4 1.1 0 0.1 0 0.1 0.1 0.8 0 0.4 0.3 0.8 0.4 1.2 0 0.3-0.1 0.7 0 1 0.2 1.2 1.4 1.7 2 2.6 0.2 0 0.2 0 0.3 0-1.1-1.2-1.6-2.2-1.6-3.6 0.6-0.1 2 0.3 2 0.3 0.7 0.2 1.7 0.6 1.9 0.3 0-0.2-0.1-0.3-0.1-0.3-0.4-0.3-0.8-0.4-1.2-0.7-0.2-0.1-0.3-0.3-0.5-0.5-0.1-0.1-0.2-0.1-0.4-0.2-0.4 0-0.4-0.1-0.5-0.2 0.2-0.7 1.3-0.9 1-1.8-0.7-0.4-1.5 0.1-1.8 1.1-0.5 1.3-1 0.6-1 0.4 0-0.3 0.2-0.5 0.5-0.7 0.2-0.3 0.3-0.5 0.4-0.9 0-0.4-0.4-0.7-0.4-1.1 0-0.3 0.3-0.5 0.3-0.8-0.1-0.1-0.2-0.2-0.3-0.2z"/>
				<path id="&lt;Path&gt;" class="s0" d="m175.2 136.8z"/>
				<path id="&lt;Path&gt;" class="s0" d="m173 139.9q0.1-0.1-0.1-0.1 0.1 0.1 0.1 0.1 0 0 0 0z"/>
				<path id="&lt;Path&gt;" class="s0" d="m173.5 130.5c0-0.2 0-0.6-0.4-0.6-0.1 0-0.5 0-0.6 0.3-0.1 0.2 0 0.5 0 0.7 0 0.2 0.1 0.3 0 0.4 0.5-0.1 1-0.3 1-0.8z"/>
				<path id="&lt;Path&gt;" class="s0" d="m170.9 141.2c-0.8 0-1.2 0.5-1 0.8 0.1 0.2 0.4 0.3 1.6 0.3 0.1 0 0.3 0 0.3-0.2 0.1-0.6-0.7-0.5-0.9-0.8q0-0.1 0-0.1 0 0 0 0z"/>
				<path id="&lt;Path&gt;" class="s0" d=""/>
				<path id="&lt;Path&gt;" class="s0" d="m168.9 138.3c-0.1 0.1-0.2 0.4 0 0.5 0 0.1 0.1 0.1 0.2-0.1q0.1-0.1 0.2-0.1c0.1 0.3 0.4 0.4 0.5 0.6 0.1 0.1 0.1 0.2 0.1 0.4 0 0 0.3 0.2 0.4-0.2 0.3 0.2 0.4 0.2 0.8 0.2 0.2 0.3 0.2 0.3 0.3 0.3q0-0.1 0-0.2c-0.2-0.2-0.5-0.3-0.6-0.5-0.2-0.2 0-0.5-0.2-0.7q-0.1-0.1-0.2-0.1c0 0 0 0-0.3 0-0.3 0-0.6-0.2-0.9-0.2-0.1 0-0.2 0-0.3 0.1z"/>
				<path id="&lt;Path&gt;" class="s0" d="m167.9 146.4c-0.3 0-0.6 0-1 0-1.7 0-0.9 0.9-0.8 1.1 0.6 0.7 3.1 1.9 3.2 0.5 0.1-0.4 0-1-0.7-1.2-0.4-0.1-0.5-0.2-0.7-0.4z"/>
				<path id="&lt;Path&gt;" class="s0" d="m166.2 144.8c0.1-0.3-0.3-0.7-0.6-0.8l-0.1-0.1h-0.1c0.2 0.7 0.4 1 0.7 1.1q0.1-0.1 0.1-0.2z"/>
				<path id="&lt;Path&gt;" class="s0" d="m174.1 145.8c-1.3-0.1-1.3-0.1-1.6-0.1q-0.1 0-0.2 0c-0.2 0.5-1.1 0.7-0.8 1.3 0.4 0.1 0.8-0.1 1.2-0.1 0.4 0 0.6 0.4 1 0.4q0 0 0.1 0c0.2 0 0.4 0 0.6-0.2 0.3-0.1 0.5-0.2 0.8-0.1 0.9 0.2 0.9 0.2 0.9 0.2 0.3 0 0.6-0.2 0.9-0.2 1 0.2 1.8 0.9 2.8 1.2q0.1 0 0.1 0 0.4 0.1 0.6-0.1c0.5-0.7-1.3-2.1-1.4-2.2 0 0-0.2 0-0.2 0-0.2-0.1-0.4-0.1-0.9-0.1-0.7 0.1-1.3-0.3-1.9-0.3-0.7 0-1.3 0.3-2 0.3z"/>
				<path id="&lt;Path&gt;" class="s0" d="m176.9 142.7c0.1 0.3 1.9 0.5 2.1-0.1q0-0.2 0-0.3c-0.2 0-0.6-0.1-0.6-0.1q-0.1-0.1-0.3-0.1c-0.6 0-1.4 0.4-1.2 0.6z"/>
				<path id="&lt;Path&gt;" class="s0" d="m147.9 164.6c0-0.4-0.8-0.8-1.2-0.8-0.4 0-0.6 0.4-1 0.5-0.3 0.1-0.6-0.1-0.9-0.1q-0.1 0-0.2 0.1c-0.4 0.3 0.7 0.7 1.5 0.9v0.1c-0.1 0-0.1 0-0.9-0.3-2.2-0.9-2.5-1.2-2.8-1.7-0.4-0.4-0.4-0.4-1.4-0.6-1.5-0.1-2.5-1.2-3.8-1.8-0.8-0.4-1.3-0.4-1.7-0.4-0.1 0-0.2 0-0.3 0-0.3 1.5-2.2 1.3-5 1.2-0.1 0-2.7-0.5-4.9-1-0.7 0.6-1.5 2.1-1.5 2.1 1 0.2 1.4 1.4 2.5 1.5q0 0 0 0 0 0 0 0 0 0 0 0 0 0 0 0 0 0 0 0 0 0 0 0 0 0 0 0 0 0 0 0c0.4 0 0.5-0.1 1.1-0.2 0.9-0.2 1.4-0.2 2.4 0.1 0.9 0.3 1.7-0.2 2.6-0.3 1.3-0.1 2.4 0.8 3.7 0.7 0.7 0 1.2 0.1 1.6 0.2 1.5 0.5 3.1 0.2 4.6 0.5 1.1 0.3 2.1 1 3.3 1 1.1 0 2-1.2 2.2-1.5q0.1-0.1 0.1-0.2z"/>
				<path id="&lt;Path&gt;" class="s0" d="m149 166c0.1 0.1 0.3 0.2 0.7 0.2 0.1 0 0.1 0 0.2 0 0.1-0.1 0.1-0.1 0.1-0.1q0.1 0 0.1 0c0.1-0.1 0.5-0.5 0.5-1.1 0-0.2 0-0.8-0.5-0.8-0.8 0-1.5 1.3-1.1 1.8z"/>
				<path id="&lt;Path&gt;" class="s0" d="m157.8 165.1c0-0.1 0-0.5-0.3-0.7 0-0.1 0-0.1-0.4-0.1-0.2 0.1-0.3-0.2-0.4-0.3q-0.1 0-0.1 0c-0.2 0-0.3 0.1-0.5 0.1-0.2 0.1-0.5-0.1-0.8-0.3-0.4-0.4-0.5-0.4-0.7-0.4-0.3 0-0.5 0.3-0.4 0.5 0.3 0.5 0.9 0.5 1.3 1-0.8 0.2-0.8 0.2-1 0.2-0.4-0.1-0.7-0.3-1.1-0.5-0.4-0.2-1.7-0.2-2 0.3 0 0-1 1.5 0.4 1.6 1.6 0.2 2.2-0.2 2.8-0.5 0.7-0.5 0.8-0.5 1.2-0.6 0 0.3 0.6 0.3 1.4 0.2 0-0.2 0-0.2 0-0.3 0.2-0.2 0.4-0.1 0.6-0.2z"/>
				<path id="&lt;Path&gt;" class="s0" d="m162.5 168.8c-0.6-0.6-1.3-0.9-1.9-1.4-0.4-0.2-0.4-0.2-1.4-0.2-1.6 0-1.6 0.7-1.5 0.9q0.1 0.2 0.4 0.4c0.3 0.1 0.3 0.1 0.9 0.1 0.6 0 0.9 0.3 1.4 0.7 0.4 0.3 0.6 0.5 1 0.6 1.2 0.4 1.5 0.2 1.5 0.1 0.2-0.4-0.4-1.1-0.4-1.2z"/>
				<path id="&lt;Path&gt;" class="s0" d="m165.4 165.5c0.3 0.1 0.5 0.1 0.9 0.1q0 0 0.1 0c0.3-0.1 0.6-0.4 0.9-0.5 0.6-0.2 1.2-0.1 1.8-0.3 0.2-0.1 0.9-1.6 0.9-1.6 0.1-0.3 0-0.3-0.2-0.4-0.7 0.1-0.4 1-0.9 1.2-0.4 0.2-0.7 0.5-1.2 0.5-0.1 0.1-0.1 0.1-0.9-0.3-0.4-0.1-0.7 0.4-1.1 0.4-1 0-1.9-0.6-2.9-0.7-0.3 0-0.5 0-0.6 0 0 0-1.5 0.1-2.1 0.6-0.3 0.3-0.4 1.3-0.2 1.4 0.5 0.3 0.5 0.3 1.5-0.2 0.2-0.1 0.3-0.1 0.9 0 0.3 0 0.9 0.1 1.7-0.1 1.3-0.4 1.3-0.4 1.4-0.1z"/>
				<path id="&lt;Path&gt;" class="s0" d="m168.1 169.5q0.1 0 0.1-0.1c0.3-0.1 0.5-0.3 0.7-0.5 0.5-0.2 1 0 1.4-0.2q0.1-0.1 0.1-0.1c1.3-0.9 2.2-2.2 3.5-3.2 1.1-0.8 2.1-1.1 3-1.4 1.8-0.6 1.8-0.6 1.9-0.9 0-0.1-0.1-0.5-0.5-0.5-0.1 0-1.5 0.2-1.9 0.2-0.9 0.2-1.7 0.6-2.6 0.8-0.5 0.1-1.1 0-1.6 0.3-0.1 0-0.1 0-0.5 0.7-0.1 0.3-0.1 0.3-0.8 0.4-1.6 0.4-3.6 2-3.6 2.1-0.4 0.5 0.2 2.1 0.3 2.1 0 0 0.2 0.3 0.5 0.3z"/>
				<path id="&lt;Path&gt;" class="s0" d="m199.5 159.5c0.7-0.4 0.8-0.8 0.9-1.1 0-0.3-0.2-0.5-0.3-0.5-0.1-0.1-0.9-0.3-1.3-0.3-0.3 0-0.5 0-0.8 0.4 0 0-0.9 1.3-1 1.5q-0.2 0.4 0 0.6c0.3 0.3 1.5-0.1 2.5-0.6z"/>
				<path id="&lt;Path&gt;" class="s0" d="m154.2 130.7c-0.1 0-0.3 0.1-0.5 0.2-0.5 0.4-0.5 1-1 1.3-0.4 0.3-1 0-1.2 0.5l-0.9 2.9c-0.1 0.5-0.1 1-0.2 1.5-0.1 0.6-1 0.1-1.1 0.6-0.3 1.2 0.4 2.3 0 3.4 0 0.1-0.6 1.9-1 2.3-0.2 0.2-0.4 0.3-0.4 0.5 0 0.1 0.5 2.4 0.6 2.6q0 0 0.1 0c0-0.1 0.1-0.2 0.2-0.3 1-1.1 1.3 2 1.3 2 0.1 1.8-0.7 3.6-0.7 5.4 3.7 0 4.1 0 3.1-4.9-0.9-4.7 0.3-5 1.7-5.2 0 2.5 0.3 3.1 1.1 4.5 0.4 0.9 0.2 1.8 0.4 2.6 1.3 0.3 1.7 0.1 2.3-0.5 0.3-0.5 0.6-0.8 1.4-0.9 0.6 0 0.8 0 0.8-0.3 0.2-1.5-1.8-1.5-1.8-2.8-0.1-1.5-0.1-1.5-0.6-2.7-0.4-0.8-0.7-1.1-1.7-1.5-0.6-0.2-0.5-0.4-0.5-0.9 0.5-0.1 1.1-0.3 1.6-0.6 0.9-0.6 1.2-1.6 2-2.2 0.6-0.4 1.3-0.2 1.9-0.6 0.1-0.1 0.2-0.2 0.2-0.3 0.1-1.1 0.1-1.1-5.8 0.7-0.8 0.2-0.8 1.2-1.5 1.5-0.3 0.1-1.2 0.2-1.4-0.2l-0.7-2c0-0.1-0.1-2.4-0.1-2.4 0.1-1.2 0.6-1.5 2.6-1.4 1.4 0.1 2.8-0.2 4.2-0.1 2.2 0 2.5 0.2 3.1 0.6 0.2 0.2 0.7 0.4 1.1 0.3 1.9-0.5 3.4-3.3 3.6-3.8 0.2-0.7 0.1-1.2-0.3-1.3-0.5 0-1.3 0.8-1.6 1.1-1.3 1.5-2.4 1.4-2.7 1.3-0.7 0-1.4 0.5-2.1 0.3-1.1-0.3-2.2-0.4-3.2-0.8-0.5-0.2-1.5-0.7-2.3-0.4z"/>
				<path id="&lt;Path&gt;" class="s0" d="m158 114.1c-1.5 1.2-1.8 1.5-2 1.7q-0.1 0.1-0.2 0.2c-0.5 0.7-0.5 1.1-0.4 1.4 0.5-0.2 0.5-0.8 0.9-1.1 0.5-0.4 1.3-0.5 1.8-0.9q0.1 0 0.2-0.1c0.6-0.5 0.9-1.3 1.4-1.9 0.6-0.7 1-0.9 1.4-1 0.4-0.1 0.8-0.2 0.9-0.4 0.1-0.2 0-0.3-0.2-0.5 0 0 0 0-0.2-0.3-0.1-0.1-0.3-0.1-0.3-0.2-0.1-0.4 0.1-0.7 0-1q-0.1 0-0.2 0c-0.2 0-0.8 0.8-0.6 1.3 0.1 0.2 0.2 0.2 0 0.4-1.4 1.5-1.4 1.5-2.5 2.4z"/>
				<path id="&lt;Path&gt;" class="s0" d="m162.4 99.8c-0.8 0.6-0.1 3.7 1.2 3.9 0-0.3 0.2-0.4 0.5-0.2 0 0.2 0 0.4-0.1 0.5 0.2-0.3 0.5-0.4 0.7-0.3 0 0.4-0.5 0.4-0.6 0.7 0 0.2 0.2 0.5 0.1 0.8 0 0-0.1 0.1-0.2 0.1-0.4-0.2-0.9 0-1 0.2-0.2 0.3-0.1 0.6-0.1 0.6 0.3 0.4 0.8 0.7 1.1 1.1 0.2 0.4 0.2 0.9 0.5 1.2 0.2 0.2 0.2 0.2 1.1 0.1 0.4-1.2 0.4-1.2-0.6-2.7-0.3-0.5 1.3-0.8 1.3-0.8 1 0 1.2 0.6 1.3 0.9 0.2 0.6 0.3 0.6 0.7 0.7 0-0.6-0.8-1-0.5-1.6 0.4 0.1 0.6 0.1 2.6 2.3 0.5 0.6 1.4 0.8 1.9 1.3 0.3 0.3 0.2 0.5 0.1 0.7-0.2-0.1-0.3-0.4-0.5-0.5-0.7-0.2-0.4 2-0.4 2 0.1 0.5 0.6 0.3 0.8 0.7 0.2 0.3-0.1 0.8 0.1 1.2 0.2 0.3 1 0.9 1.2 0.3 0.5-0.8-0.6-1.6-0.2-2.4 0.6-0.1 1 0.7 1.7 0.5-0.1-0.6-0.6-0.8-0.7-1.3-0.3-1.1-0.3-1.3-0.4-1.5q0-0.1-0.1-0.1c-0.3-0.7-0.5-0.7-0.7-0.7q0 0 0 0 0 0 0 0 0 0 0 0 0 0 0 0 0 0 0 0 0 0 0 0 0 0 0 0 0 0-0.1 0c-0.1 0-0.2 0-0.5 0.1-1.5 0.4-1.3-0.1-1.1-0.8 0.2-0.7 0.2-0.7-1.4-1.2q0-0.1 0.1-0.2c0.4-0.1 0.4-0.1 1 0.2 0.3 0.1 1.1 0.1 0.9-0.6 0-0.3-0.3-0.5-0.3-0.5-0.4 0-0.6 0.3-1 0.3-0.4 0-0.7-0.3-1.2-0.3-0.1 0-0.1 0-0.4 0.4-0.2 0-0.2 0-0.4 0 0-1.6-1.2-1.1-1.7-0.9-0.4 0.2-0.6 0-0.7-0.1-0.2-0.3-0.1-0.7-0.2-0.9-0.1-0.2-0.4-0.1-0.5-0.3 0-0.1 0-0.3 0-0.4 0.2-1.4 0.6-1.5 1.1-1.6 0.5 0 0.5-0.1 0.6-0.4 0 0 0.9-2 0.8-2.1 0-0.4-0.4-0.8-0.4-1.3 0-0.3 0.2-0.5 0.3-0.8 0.1-0.2-0.4-0.9-0.7-0.7q0 0 0 0.1 0 0.1 0.1 0.1c-0.4 0.3-0.8 0.2-0.9-0.1-0.1-0.2-0.3-0.4-1.5-0.4-0.3 0-0.7 0-0.9 0.4l-0.8 2.1c0 0.3 0.3 0.4 0.3 0.7v2.1c-0.4 0.5-0.7-1-1.3-0.6z"/>
				<path id="&lt;Path&gt;" class="s0" d="m167.1 108c0 0 0.1 0.1 0.2 0.1 0.3-0.1 0.1-0.6-0.5-0.9-0.2 0.5-0.8 0.8-0.8 1.5-0.1 0.2 0.3 0.6 0.6 0.7 0.1 0.1 0.2 0.1 0.2 0.2-0.1 0.3-0.4 0.5-0.3 0.9 0.2 0.5 0.2 0.5-0.1 0.8 0 0.1-0.2 0.3-0.2 0.7q0 0.1 0 0.1c0.3 0 0.5-0.4 0.9-0.3 0 0 0.1 0.1 0.1 0.3 0 0.3 0.5 0.3 0.5 0.3 0.2 0 0.1-0.4 0.4-0.3 0 0 0 0.3 0 0.4 0 0.1 0 0.2-0.4 0.3-0.9 0.3-0.5 1.2-0.4 1.3 0.1 0.1 0.2 0.1 0.2 0.2 0.3 0.1 0.6 0.2 0.9 0.3 0.1 0.1 0.2 0.3 0.4 0.3 0.2 0.1 0.4 0 0.6-0.1 0.1 0 0.1-0.2 0.2-0.3 0.2-0.4 0.3-0.9 0.5-1.3 0.1-0.3 0.4-0.6 0.6-0.9 0.1-0.3 0-0.5 0.1-0.8 0.1-0.3 0.2-0.5 0.3-0.7q0-0.1 0.1-0.2c0-0.2-0.3-0.7-0.7 0.4 0 0-0.1 0.2-0.1 0.2-0.2 0.3-0.5 0.6-0.7 0.8-0.2 0.3-0.2 0.7-0.4 1q0 0-0.1 0.1c-0.1-0.4-0.1-0.8 0.6-1.7 0.4-0.7-0.5-0.4-0.5-0.4q-0.2 0-0.4 0.2c-0.4 0.3-0.6 0.3-0.6 0.3 0 0-0.5-0.2 0.2-0.7 0.9-0.6 0.6-1.2 0.6-1.2-0.1-0.1-0.3-0.2-0.5-0.2-0.6 0-1.5-0.3-1.8-0.5-0.5-0.3-0.4-0.6-0.3-0.8 0 0 0.3-0.4 0.6-0.1z"/>
				<path id="&lt;Path&gt;" class="s0" d="m169 109c0.2 0.1 0.3-0.1 0.5-0.1 0.3-0.1 0.5-0.1 0.8 0.3 0.2 0.3 0.6 0.1 0.7-0.2 0-0.4-0.6-1.2-0.6-1.2-0.1-0.1-0.4-0.3-0.9-0.4 0 0-0.2 0-0.2 0.1 0 0.1 0 0.2 0 0.3-0.1 0.2-0.3 0.4-0.4 0.6-0.1 0.3-0.1 0.4-0.1 0.4 0.1 0.2 0.2 0.2 0.2 0.2z"/>
				<path id="&lt;Path&gt;" class="s0" d="m175.5 113.1c0 0-0.1-0.3-0.4-0.1-0.1 0.2-0.1 0.4-0.2 0.6q-0.1 0-0.3 0c0-0.1 0-0.3 0.1-0.7 0.1-0.7 0-0.7-0.1-0.8-0.3 0.1-0.3 0.1-0.5 1.1-0.6 0.2-0.7 0.3-0.3 1 0.2 0.4 0.2 0.4 0.1 0.7-0.2-0.1-0.4 0-0.5 0.2-0.3-0.1-0.4-0.5-0.7-0.6-0.4-0.2-0.5 0-0.6 0.1-0.1 0.2 0.2 0.3 0.3 0.5 0.1 0.2-0.4 0.9-0.4 0.9-0.2 0.2-0.5-0.1-0.7 0-0.2 0.2-0.2 0.5-0.5 0.6-0.5 0.1-0.3-0.7-0.7-0.9-0.3-0.1-0.8 0.1-1 0.1-0.4 0.2-0.4 0.9-1 0.9-0.9 0.1-0.9 0.1-1.1 0.3 0 0-1.3 1.4-1.1 2 0 0.1 0.3 0.6 0.9 0.1 0.4-0.3 0.3-0.7 0.5-1.1 0 0 0.2-0.4 0.5-0.2 0 0 0.2 0.8 0.3 0.9q0 0 0 0c0.2-0.1 0.2-0.1 0.5-0.5 0.3 0.3 0.5 0.3 0.6 0.3 0.1-0.3 0-0.7 0.1-0.9 1.1 0.3 1.6 0.5 1.2 1.2-0.5 0.9 0 1.8 0 1.9 0.6 0.7 1 0.8 1.7 0.9 0.6 0.2 0.7 0.3 0.8 0.6 0 0.1 0 0.4 0.1 0.4 0.6 0.1 1-1.1 1-1.3 0.1-0.5-0.1-0.8-0.2-0.9 0-0.2-0.2-0.4-0.1-0.6 0-0.2 0-0.2 0.6-0.3 0.2-0.2 0.2-0.2 0.3-0.2 0.3 0.5-0.2 1 0.2 1.5 0.2 0.2 0.6 0 0.8-0.5 0 0 0.3-1.5 0.3-1.7 0.1-0.3 0-0.7 0-1 0.1-0.3 0.3-0.5 0.4-0.8 0-0.2 0-0.4 0-0.5-0.1-0.3-0.5-0.3-0.6-0.5 0 0-0.1-0.1 0-0.3 0.1-0.1 0.2-0.1 0.1-0.4-0.2-0.4-0.6-0.5-0.7-0.9-0.1-0.4 0.5-0.7 0.3-1.1z"/>
				<path id="&lt;Path&gt;" class="s0" d="m171.8 113.7c0.1 0 0.5-0.6 0.5-0.9 0-0.2-0.2-0.3-0.3-0.3-0.4 0-1 0.4-1.4 0.7-0.2 0.3-0.1 0.4 0 0.8 0 0 0.1 0 0.3 0q0 0 0 0c0.1 0 0.6-0.1 0.9-0.3z"/>
				<path id="&lt;Path&gt;" class="s0" d="m172.3 112.8z"/>
				<path id="&lt;Path&gt;" class="s0" d="m166.2 119.7c-0.6 0-0.6 0.3-0.6 0.5 0.1 0.4 0.9 0.6 1.3 0 0.1-0.2-0.2-0.5-0.7-0.5z"/>
				<path id="&lt;Path&gt;" class="s0" d="m163.5 121.3c-0.1 0.1-0.1 0.2-0.1 0.3 0 0.4-0.1 0.5-0.2 0.7 0.4 0 1.4-0.6 1.5-0.9 0-0.2-0.3-0.3-0.6-0.3q-0.5 0-0.6 0.2z"/>
				<path id="&lt;Path&gt;" class="s0" d="m162.2 122.7c-0.3 0-0.5 0.1-0.7 0.2 0 0-0.5 0.4-0.6 0.5 0 0.1 0 0.2 0 0.2 0.3 0.1 0.5 0 0.6-0.1q0.1 0 0.2-0.2 0.2-0.2 0.4-0.5 0.1 0 0.1-0.1z"/>
				<path id="&lt;Path&gt;" class="s0" d="m242.7 271.1c0.4-0.3 0.8-0.7 1.1-1.1 0.7-1.3 1.1-2.6 1.8-3.9 1-1.8 3.3-1.6 4.6-2.9 0.2-0.2 0.4-0.4 0.5-0.6q0.1-0.1 0.1-0.2c0.2-0.6 0.3-1.2 0.5-1.8 0.4-1.1 1.2-2 1.5-3.2 0-0.1 0.1-0.3 0.1-0.5-0.7 0.4-0.8 0.2-0.9-0.1 0-0.3-0.1-0.6-0.4-0.7-1.2 0.4-2.3 2.6-3 3.7-0.5 1-1.3 1.2-1.9 1.3-0.5 0-0.8 0.1-1.2 0.4-0.7 0.6-0.8 1.7-1.6 2.2-0.4 0.2-0.8 0.2-1.2 0.3-1.1 0.2-1.2 0.2-2.6 1.4-0.8 0.8-2 2-2.6 3.5q0.1 0 0.1 0c1.8 2.7 4.1 2.9 5.1 2.2z"/>
				<path id="&lt;Path&gt;" class="s0" d="m259.5 247.5c-1.4 0.2-1.4-0.5-1.3-1 0-0.4 0-0.9-0.2-1.1-0.4-0.5-0.6-0.3-1.4 0.3-0.7 0.5-0.9-0.5-1.1-1.5-0.7-3.2-1-3.7-1.7-4.1-1.8 0.2 0 3.2 0.9 4.8 1.9 3.4 1.2 4.6 0.6 5.5-0.4 0.8-0.8 1.3-0.8 1.7-0.1 1 1.3 1.3 1.2 2.2 0 1.1-0.9 1.8-0.9 2.9 0 0.1 0.1 0.2 0.1 0.3 0.3-0.3 0.7-0.6 1-0.9 1.4-1.5 2.3-3.3 3.5-4.9 0.8-1.2 2.7-1 3.4-2.5 0 0 0.9-2.4-3.3-1.7z"/>
				<path id="&lt;Path&gt;" class="s0" d="m244.1 351.5c-5.3 0.7-5.7 0.4-5.9 0.2 0.2-0.4 0.2-0.4 0.8-0.8q-1.5 0.8-3 1.6c-7.1-1.6-14.6 1.9-21.5-1.7 0.6-1.9 2.5-2.9 3.4-4.6-2-0.5-3.1-2.6-5.3-2.8-7.8-0.5-15.6 1.3-23.5 0.8-11.1-0.8-21.9-3.9-33-5.1-2.6-0.3-4-0.3-5.8-0.4-4.3 0.1-4.9 0.3-7.8 1.5-4.9 2-13.8 1.8-13.8 1.8-4.1-0.1-7.3 3.2-11.3 3.2-1.1 0-5.5-2-6.7-3.9-0.2-0.4-0.3-0.5-12.9-1.9 25.6 14.3 55.1 22.4 86.5 22.4 21 0 41.1-3.6 59.8-10.3z"/>
				<path id="&lt;Path&gt;" class="s0" d="m53 72.6c0.3-3 7.6-15.6 10.6-16.9-0.4 3.5-3.4 6-3.7 9.6 0.7 0.2 1.7 0.1 2.3-0.1-0.1 0.8-0.4 2-0.9 2.7 0.5 1.1 1.5 1.8 2.3 2.7 3.1-0.1 3.7-0.3 5.9-1 0.3 0.2 0.7 0.4 1 0.6-0.8 3.2-0.8 3.2 0 4.3 0.4 0 0.8-0.1 1.2-0.2-0.7 1.1-1.8 1.9-2.6 2.8 0.1 1.2 0.7 2.2 0.9 3.3 0.4 0 0.8 0.1 1.2 0.2 0.8-0.7 0.8-0.7 3.3-3.6-9.3 38-10 41.2-5 43.2 2.3-2.1 4-3.8 4-3.8 6.7-8.5 7.3-10.4 10.7-20.6 1.3-4 5.9-3.9 8.2-6.7 2.2-2.5 5.5-3.9 7-7.1 0.1 0.1 4.2 12.6 4.2 12.7 1-0.8 1.5-2 2.6-2.8 3.6 1.8 3.3 9.2 3.3 9.3-0.1 2.7-3.1 2.8-4.1 4.6-0.5 0.8-0.6 1.1 3.9 14.3 4.9 13.9 4.9 13.9 8.9 17.1 2.6-4.7 0.2-13.9-5.2-15.5-3-1-3.3-15.4-2.9-16.2 1.9-4.5 9.3 4 9.4 4.1 0.3 0.7 0.4 2.3 0.4 4 5.7 3.4 12-10.9 12-11.1-0.1-0.5-0.4-1.1-0.6-1.5l-5.5-15.5c0.5-1 1.1-2.2 3.7-3.3l12.9-3.8c1.1 0.1 31-22.7 12.7-28.5-2.6-5.1 6.4-5.1 8.4-8.8-11 3.4-11 3.4-14.2-1.1 0.1-0.1 7.6-9.7 15.9-5.1 0 0.4-0.1 0.8-0.2 1.2 0.2 0.2 0.5 0.6 0.7 0.9 1.1-0.2 2.2-0.7 3.3-1.1 0.2 0.3 0.5 0.6 0.7 0.9-0.4 1.3-0.4 1.3-2.5 2.9 1.9 2.4 1.9 2.4 2.8 7.6 3.3-0.2 5.5-3.1 5.5-3.1 0.1-0.4 0-0.9 0-1.2-0.1-2.9-3.2-4.2-3.3-7.1-0.1-2.9 2.5-4.8 2.8-7.5 8.6 2.5 11.6-7.8 10.4-16.2-6.1-0.7-6.1-0.7-6.7-1 0.1-0.3 0.1-0.8 0.2-1.1 2.3-1.3 4-2.3 5.2-2.9-67.1 0.1-125.5 37.4-155.5 92.5q-0.7 2-1.2 3.9c14.9-9.1 29.7-24 29.8-24.2 3.2-3.4 0.4-8.6 3.5-12-2.9 1.2-4.5 4.5-7.7 5.2z"/>
				<path id="&lt;Path&gt;" class="s0" d="m203.9 17.9c0.3-0.2 0.6-0.5 0.9-0.8-0.8-3.8-0.9-4.1-7.2-9.4q-0.7 0-1.4-0.1c4 3.8 7.7 10.2 7.7 10.3z"/>
				<path id="&lt;Path&gt;" class="s0" d="m25.9 106.3c0-0.1 0-0.8 0.3-2.2-7.4 14.6-12.9 30.4-16.1 47 6-18.3 15.3-34 24.5-49.5-3.1 1.2-5.3 4.1-8.7 4.7z"/>
				<path id="&lt;Path&gt;" class="s0" d="m279.3 34.8c3.4 2.9 6.8 5.7 10.9 7.5q-5.3-3.9-10.9-7.5z"/>
			</g>
		</g>
	</g>
</svg>