<svg version="1.2" xmlns="http://www.w3.org/2000/svg" viewBox="0 0 364 364" width="364" height="364">
	<title>vecteezyglobe-iconsbk0222</title>
	<style>
		.s0 { fill: #000000 } 
		.s1 { fill: #ffffff } 
		.s2 { opacity: .3;fill: #ffffff } 
	</style>
	<g id="_Artboards_">
	</g>
	<g id="BACKGROUND">
	</g>
	<g id="OBJECTS">

		<g id="&lt;Group&gt;">
			<g id="&lt;Group&gt;">
				<path id="&lt;Path&gt;" class="s2" d="m360.9 182.5c0 98-79.4 177.3-177.3 177.3-97.9 0-177.3-79.3-177.3-177.3 0-97.9 79.4-177.3 177.3-177.3 97.9 0 177.3 79.4 177.3 177.3z"/>
			</g>
			<g id="&lt;Group&gt;">
				<path id="&lt;Path&gt;" class="s0" d="m83.5 274.2c0.8 2.9 2.6 3.9 3.3 4.3 0.3 0.2 2-0.3 2.4-0.8 0 0 0.8-3.4 0.9-3.4 0-0.1 0.6-4.5 0.9-6.6 0.4-3.8 0.3-7.6 0.9-11.3 0.1-0.9 1.3-1.1 1.3-2 0 0 0-2.8-1.2-9-0.1-0.9-0.3-1.3-0.5-1.8-0.2 0-0.4 0.1-0.5 0.1-0.3 0.1-0.9 0.4-1.1 0.7-0.8 1.3-0.8 1.3-1.3 2.8-0.3 1.1-1.1 1.8-1.7 2.7-0.8 1.4-1.2 3-2.2 4.3-1.1 1.5-3.1 2.3-3.4 4.5 0 0.5 0 0.8 0.1 1.1 0.3 2.4 1.2 4.7 1.7 7.1 0.6 2.4-0.2 4.9 0.4 7.3z"/>
				<path id="&lt;Path&gt;" class="s0" d="m238.8 215.7c-3.9-4.1-4.5-4.3-5.5-4.8-0.6-0.3-1.2-0.5-1.7-0.9-1.9-1.8-3-4.3-5.1-6-0.2-0.2-4.4-2.8-7.2-4.5-0.1 1.5 0.4 2.5 0.7 2.9 1.2 1.9 3.1 3.2 4.4 5 0.4 0.5 0.4 1.1 0.4 1.7 0 0.9 2.8 5.1 2.9 5.1 0.3 0.5 1 0.6 1.3 1.1 0.4 0.7 0.4 1.5 0.9 2.1 1.2 1.4 0.6 3.4 1.6 4.9q0.1 0.1 0.2 0.2c1.2 1.7 7.3 7.7 7.4 7.7 0.9 0.9 1.3 0.9 2.1 0.9q0.1-0.4 0.1-0.8c0.5 0.2 0.7 0.2 1.1 0.2 0.1-0.3 0.1-0.3-0.6-2.4-0.3-1.2 0.2-2.3 0.1-3.4-0.1-0.2-0.1-0.3-0.1-0.4-0.2-0.8-1.8-3-1.8-3.1-0.6-0.7-2.4-0.7-2-2 1-3.3 1-3.3 0.8-3.5z"/>
				<path id="&lt;Path&gt;" class="s0" d="m287.3 118.3c-0.4 1.4 2.2-0.1 3.1 0.8 0.7 0.6 0.7 0.6 1.9 3.4l3.5-4.1c0.1-0.1 0.3-0.3 0.4-0.4 0.3-0.5 0.3-1 0.2-1.5 1.6-0.7 2.5-0.8 3.7-0.6 1 0.2 1.3 0.1 1.9-0.4 1.4-1.3 0.6-3.1 0.9-4.6 0.2-0.6 0.5-0.8 1-1 0-0.1 2.2-1.2 2.8-2.5 0.7-1.4-0.9-5.3-0.9-5.3-0.7-1.6-0.7-1.6-0.3-2.3 0.3-0.6 0.2-1.9 0.2-1.9 0-0.3-3.6-7.2-5.6-7.8-0.7 0-0.2 2.5 0.8 4.3 0.4 0.6 0.4 0.6 0.8 4.9 0.2 2.5 0.2 2.9-1 5.3-0.5 0.9-1.6 0.6-2.3 1.1-0.2 1.4 2.3 1.8 1.4 3.3 0 0 0 0-3.3-0.2q0 0 0 0 0 0 0 0 0 0 0 0 0 0 0 0 0 0 0 0 0 0 0 0 0 0 0 0 0 0 0 0c-0.7 0-1.1 0.1-1.7 0.8z"/>
				<path id="&lt;Path&gt;" class="s0" d="m302 82.2c0.4-0.1 0.9-0.2 0.9-0.6 0-0.2-0.1-0.8-1.1-1.2-0.8-0.4-1.7-0.3-2.5-0.6-1.1-0.3-1.9-1.3-2.9-1.8-0.4-0.3-0.7-0.4-0.9-0.4-0.4 0.1-0.2 1.6 0.7 2.8 0.3 0.3 0.9 1.3 1.7 3.4 0.5 1.2-0.5 1.8-0.9 1.6 0 1.3 0.1 2.4 0.4 4q0 0 0 0 0 0 0.1 0c1.2-0.5 1.4-0.9 1.4-2.2-0.1-1.6 0.7-1.8 1.2-1.8 0.3 0 0.7 0.2 1.1 0.4 0.5 0.2 1.1 0.5 1.2 0.3 0.2-0.2 0.2-0.2-1-2.3-0.6-1.3-0.1-1.4 0.6-1.6z"/>
				<path id="&lt;Path&gt;" class="s0" d="m285.5 73.9c0 0 0 2.7 0.9 3.9 1.1 1.5 2.6 0.4 2.6 0.3 0.4-0.6 0.2-0.9-1.1-2.7-1.8-2.3-2-2.5-2.4-4.3-0.2-1.1-0.1-1.4 0.4-2 0.1-0.2 0.3-0.4 0.4-0.7 0.2-1.3-1.2-1.5-1.8-2.3-0.4-0.5-0.6-1.1-1-1.7q-0.5-0.6-1-1.2c-2.6-3.5-2.7-3.6-3-4.5-0.4-0.8-0.5-1.1-0.8-1.6 0 0-0.4-0.5-0.9-0.7q0 0.1-0.1 0.1l0.6 3.1c0 0.3 0 0.3 2.6 3 0.6 0.6 2.2 2.3 2.7 3.6 0 0.1 0.1 0.3 0.1 0.4 0.2 0.8-0.5 1.5-0.4 2.3 0.2 1.9 2.2 3 2.2 5z"/>
				<path id="&lt;Path&gt;" class="s0" d="m148.6 12c-3.2 3.5 1.8 6.1 4.7 6-0.5-1.5-1.9-2.5-2.2-4.1-0.1-1.2 0.6-1.9 1.3-2.5 1.4-1.3 5.3-2.9 7.4-3.7q1.5-0.6 2.9-1.3-3 0.4-6 0.8c-6.1 2.5-6.3 2.7-8.1 4.8z"/>
				<path id="&lt;Path&gt;" class="s0" d="m310 251.9c-0.5 0.1-0.5 0.1-1.1 0.6-0.2-0.3-0.4-0.6-0.2-1.7 0-0.1 0.6-7-0.7-7.3-1.8 0.3-4.7 7.5-4.9 8-1.9 6.2-2 6.8-5.9 8.4-7.1-6.4-7.1-6.4-5.7-7.6 0.1 0 4.4-4.9 3.8-6.4-1.5-0.1-2.9 0.5-4.4 0.3-1.3-0.2-1.6-1.9-3-1.9-1.1 0.1-1.2 1.4-2 1.8-1 0.4-2 0.1-2.9 0.4-0.1 0.1-6.4 4.9-5 5.9 1.8 1.3-3 1.2-4.4 1.9 0.1-0.6 0.5-1.1 0.5-1.7-4.1-3-7.4 0.7-9 4.9-1.1 0.3-2.5-0.8-3.2 0.5 0.5 1.4 0.7 1.9-0.6 2.3-0.3-0.1-0.3-0.1-1.3-1.7-1.7-0.2-2.7 1.8-1.9 2.8 1 1.3-4 5.1-4.1 5.1-4.7 1.9-10 2.4-14.3 5.5-1.2 0.8-1.4 1.4-1.3 2.1 0.1 0.6-0.1 0.7-0.5 0.8-0.1 0-0.2-0.1-0.3-0.2 0-0.3-0.1-0.6-0.1-0.9-0.1 0-0.3-0.1-0.4-0.1-1.1 0.8 0.3 2-0.1 3-0.4 1.1-1.5 1.7-1.9 2.8 0 0.2-0.1 0.4-0.1 0.6 0 0.1 0.8 1.3 1.8 2.3 0.6 0.5 0.5 0.7 0.3 1.1-1-0.1-1.7-1.2-2.8-0.7 4.5 8.5 4.5 8.6 4.7 14.1 0 0.6 0 1.4-1.5 1.8-1.2 0.2-1.1 0.8-1.1 0.8 0.2 0.6 3.9 2.2 3.9 2.2 4.2 0.3 6.7-4.1 10.9-3.8 3.4 0.2 4.9-3.9 8.3-3.7 0.4 0 0.9 0 1.6-0.2 6.5-1.7 6.5-1.7 8-1.7l3.5 1.6c0 0.1-0.3 3.9-0.2 5.3 0.1 0.1 0.3 0.1 0.4 0.2 0.1-0.1 0.2-0.1 0.3-0.2 0 0 4.1-3.4 4.6-3.8 0.1 0.1 0.3 0.1 0.4 0.2-0.2 0.5-0.2 0.5-4.1 3.9 0.1 0.1 0.2 0.2 0.2 0.4 0.3 0 0.3 0 2.5-1.5-1.1 2-1.4 2.6-3.1 2.4-1.1-0.1-1.1 0.2-1.2 0.6 1.5 0.9 2.7-0.7 4.1-0.6 1.2 2-2.1 3.3-0.9 5.3 1.2 2 3.2 0.6 4.8 1.1 0.3 1.2 0.4 1.5 1 1.4l5.3-2.2 12.6-11.1c2-1.7 2-1.7 6.7-7.4 1.8-2.2 2.8-4.9 4.5-7.3 0.1-0.2 0.2-0.6 0.2-0.9-0.8 1.1-0.8 1.1-1.3 1.3l-0.2-3.9c0-1.2 1.9-1.4 1.5-2.8-0.2-0.9-1.5-1.3-1.1-2.4 0.1-0.2 0.3-1 0.3-1.6 0.1-2.5-2.1-4.8-0.7-7.4 0.8-1.6 1.1-2.3 0.3-4 2-5.1 2-5.1 0.5-7z"/>
				<path id="&lt;Path&gt;" class="s0" d="m284.7 312.3c-0.5 0-0.3-0.8-0.8-0.8-0.5 0-0.5 0-1.2 1-0.4 0.6-0.4 0.8-0.4 1.2-0.1 0.4-0.2 0.6-0.2 0.7-0.3 0.4-0.8 0.7-1.1 1.2-0.1 0.2-0.2 0.4-0.2 1.4q0 0.4 0.4 0.1c0.4-0.1 0.5-0.5 0.8-0.7 0.3-0.3 0.8-0.4 1.1-0.7 0.4-0.2 3.1-2.3 3.4-2.5 0.8-0.8 0.8-1.4 0.7-1.5q-0.1 0-0.2 0c-0.8-0.1-1.4 0.6-2.3 0.6z"/>
				<path id="&lt;Path&gt;" class="s0" d="m259.9 199.8c-0.2-0.4-0.7 0-1 0.2q-0.1 0-0.1 0.1c-1.5 1.1-2.3 2.8-3.7 4-1.3 1.1-3.1 1.2-4.4 2.4 0 0-0.7 1.5-0.8 2.9 0 0-2.5 0.3-4.5-0.5q0-0.1 0-0.2c-1.4 0.4-1.5 2.1-1.3 2.7q0 0 0.1 0c0.5 1.1 0.1 2.5 1 3.5 0.4 0.4 0.2 1.1 0.9 1.2 0.6 0 0.9 0.1 1.3 0.9 0.2 0.5-0.1 1 0 1.4 0 0.5 0.5 0.8 0.5 1.3 0.1 0.4 0 0.7 0.1 1.1 0.4-0.1 0.8-0.2 1.3-0.3q0 0 0 0 0.1 0 0.1 0 0 0 0 0 0 0 0.1 0 0 0 0 0 0 0 0.1 0 0 0 0 0 0 0 0.1 0c0.7 0 1.2-0.3 1.9-0.3 0.1 0 0.2 0 0.5 0.4 0.4 0.4 1.2 1.5 2.1 0.2 0.1-0.2 0.5-0.8 1.1-0.7 0.8 0 1.4 0.6 2.3 0.7q0 0 0 0 0 0 0 0 0 0 0 0 0 0 0 0 0 0 0 0 0 0 0 0 0 0 0 0c0 0 0 0 0.1 0 0.9-0.3 0.9-0.3 1.6-0.3 0.2 0.8 0.7 1.6 1 1.6 1.5-0.1 2.3-1.4 3.4-2 0-0.9 0-0.9 1-1.6-1-2.3-0.2-2.9 0.2-3.3q0 0 0 0c0.7-0.8 2.4-0.8 2.1-2.2-0.5-1.9-0.5-1.9 0.2-2.6 0.8-0.9 0.8-0.9 3.5-1.4q0.1 0 0.2 0c-0.1-0.4-0.2-0.5-0.9-0.7-0.7-0.1-0.8-0.2-2.5-1.7 0.5-0.4 0.4-0.9 0-1.2-0.2-0.2-1.7-2.2-1.6-2.8 0.4-0.1 0.8 0.1 1.2-0.1 0.5-0.2 0.1-0.9 0.6-1.1 0.5-0.2 1.1-0.1 1.5-0.5q0.1-0.1 0.1-0.1c0.6-0.8-0.7-1.1-0.8-1.8 1.7-0.4 1.8-0.4 2.4-0.9-0.4-0.5-1-0.2-1.5-0.5-0.3-0.2 0-0.6-0.3-0.8-0.1 0-0.2 0-0.7 0.1-0.5 0.1-0.5 0.1-0.7 0q0.1-0.1 0.1-0.2c-0.3-0.1-0.3-0.1-0.9 0.1-0.2-0.4-0.1-0.8-0.4-1.1-0.3-0.5-1.1-0.7-1.3-1.4-0.3 0.1-0.3 0.1-0.4 0.6-0.3-0.1-0.6-0.3-1 0-0.7 0.7-0.8 1.6-1.3 2.4-0.4 0.7-1.3 0.6-1.8 1.2-0.4 0.6 0.7 0.9 0.3 1.5 0 0-0.5 0.9-1.1-0.2z"/>
				<path id="&lt;Path&gt;" class="s0" d="m303.5 216.2c-0.3 0.4-0.2 0.9-0.5 1.2-0.3 0.5-0.7-0.3-1-0.4-0.1-0.1-0.2 0-0.2-0.1q-0.1 0-0.2 0c0-0.1 0-0.1-0.3-1q-0.1-0.1-0.2-0.1c0 0.1 0 0.3-0.1 0.4q-0.1 0-0.2 0c-0.5-1.7 1.1-3.3 0.2-5-0.1-0.2-3.3-1.2-3.3-1.2-1.9 0.1-2.4 2-3.8 2.8q0.1 0.1 0.2 0.2c0.5 0.3 1.1-0.1 1.7 0.1 0.7 0.3 0.3 1.3 1 1.6 0.2 0.1 0.6 0.1 0.9 0.1q0 0 0 0 0 0 0 0 0 0 0 0 0 0 0 0 0 0 0 0 0 0 0 0 0 0 0 0c0 0 0 0 0.2 0 0.6 0.1 1.2-0.2 1.8-0.1 0.2 0.2 0.2 0.2 0.1 0.5 0 0-1.4 1.4-4.2 1.5 0.4 0.6 1.5 0.8 1.5 0.8 0.1 0.1 0.3 0.1 0.4 0.3 0.3 0.6-0.9 1.8 0.1 2 1.2 0.4 0.7-1.7 1.7-1.9 0 0.8 0 0.8 0 0.9 0.5 0.5 1.1-0.2 1.5 0.2 0.6 0.4 0.3 1.2 0.8 1.6 0.5 0.4 1.1 0 1.5 0.2 0.6 0.3 1.1 0.8 1.7 1 2.5 0.4 2.5 0.4 2.6 0.5 0.2 0.2 0.8 0.6 0.3 1.4-0.7 1 0.5 2 0.1 3.1-0.2 0.5 0.3 1 0.2 1.6-0.1 0.6-0.9 0.7-0.9 1.4q-0.1 0.1-0.1 0.2c1 0.1 1.7-0.9 2.7-0.9 0.4 1 0.6 2 1.2 2.9 0.2 0.3 0.6 0.2 0.9 0.2 0.4 0.3 1.3 1 2.6 0.9 2.2-2.9 2.8-3.4 4.2-3.6 1.1-0.2 2.6 1.4 2.7 2.3 0.2 1.3 2.7 6 6.5 5.3 0.1-0.2 0.2-0.4-1.1-2.3q-0.1-0.1-0.1-0.2c-0.2-0.2-0.2-0.2-0.5-1.8-0.2-0.9-1.3-1-1.7-1.8-1-2.5-0.2-3 0.8-3.7 1.5-0.9 1.6-2.8 1.5-3.1-4.7 0-4.7 0-5.6-2.1-1.9-4.6-2.7-4.9-3.6-5.2-0.3-0.4-0.6-0.8-1.4-1.2-0.5-0.3-1.1-0.1-1.6-0.3-0.5-0.2-0.7-0.8-1.1-1-1-0.4-2-0.4-3-0.9-0.7-0.3-1.1-1.3-2.1-1.3z"/>
				<path id="&lt;Path&gt;" class="s0" d="m282.5 215.5q0 0 0 0c-0.3-0.1-0.6-0.2-0.9-0.3-0.3-0.1-0.4-0.1-0.6-0.1-0.2 0-0.6 0-0.8 0.2-0.1 0.1-0.2 0.5 0.3 0.7 0.6 0.2 1.3 0 1.9 0 0-0.1 0-0.2 0-0.4q0 0 0-0.1c0 0 0 0 0.1 0z"/>
				<path id="&lt;Path&gt;" class="s0" d="m284.5 215.5q0 0 0-0.1c-0.5 0-0.6 0-0.9-0.1-0.2 0.1-0.8 0.1-0.6 0.5 0 0.1 0.2 0.1 0.3 0.1 0.4 0.1 0.7 0 1 0q0.1 0 0.3 0 0.4 0 0.5-0.2c0.1-0.2-0.4-0.2-0.6-0.2z"/>
				<path id="&lt;Path&gt;" class="s0" d="m289.5 204.8c-0.4 0-1.3 1.7-1.3 2-0.1 0.1-0.1 0.1 0.2 1 0.1 0.1 0.1 0.1 0 0.7 0 0.4 0.2 0.7 0.3 1.1 0 0.3-0.1 0.6-0.1 0.9 0.1 1 1 1.5 1.4 2.3 0.1 0 0.2 0 0.2 0-0.8-1.1-1.1-2-1-3.2 0.5-0.1 1.6 0.3 1.6 0.3 0.5 0.2 1.3 0.5 1.4 0.2 0-0.1 0-0.2 0-0.2-0.3-0.2-0.6-0.4-0.9-0.6-0.1-0.2-0.2-0.4-0.3-0.5-0.1-0.1-0.2-0.1-0.4-0.1-0.2-0.1-0.3-0.2-0.3-0.3 0.1-0.6 1-0.8 0.9-1.6-0.6-0.4-1.2 0.2-1.5 1-0.5 1.4-0.8 0.4-0.8 0.3 0.2-0.5 0.6-0.7 0.7-1.2 0.1-0.4-0.1-0.8-0.1-1.2 0-0.2 0.2-0.5 0.2-0.8 0 0-0.1-0.1-0.2-0.1z"/>
				<path id="&lt;Path&gt;" class="s0" d="m290.3 212.9q0-0.1-0.1-0.1 0.1 0.1 0.1 0.1 0 0 0 0z"/>
				<path id="&lt;Path&gt;" class="s0" d="m291.4 204.5c0-0.3 0-0.6-0.3-0.7-0.1 0.1-0.4 0.1-0.5 0.4-0.1 0.3 0 0.6 0 1 0.3-0.1 0.7-0.3 0.8-0.7z"/>
				<path id="&lt;Path&gt;" class="s0" d="m288.5 214.1c-0.6 0-1 0.4-0.8 0.6 0.1 0.2 0.3 0.3 1.2 0.3 0.1 0 0.2 0 0.3-0.2 0-0.3-0.2-0.4-0.3-0.5-0.3-0.1-0.3-0.1-0.4-0.2q0 0 0.1 0-0.1 0-0.1 0z"/>
				<path id="&lt;Path&gt;" class="s0" d="m289 212.9z"/>
				<path id="&lt;Path&gt;" class="s0" d="m287.4 211.4c0 0-0.1 0-0.2 0.1-0.1 0.1-0.2 0.3-0.1 0.5 0.1 0 0.1 0 0.2-0.1q0.1-0.2 0.2-0.1c0 0.2 0.2 0.3 0.3 0.4 0.1 0.1 0.1 0.2 0.1 0.3q0 0.1 0 0.1c0 0 0.2 0.2 0.3-0.2 0.2 0.2 0.3 0.3 0.6 0.2 0.1 0.3 0.2 0.3 0.2 0.3q0 0 0 0c0-0.2 0-0.2-0.2-0.4-0.1-0.1-0.2-0.2-0.3-0.4 0-0.1 0.1-0.3 0.1-0.4q-0.1-0.1-0.1-0.1 0 0-0.1 0-0.1-0.1-0.3 0c-0.2 0-0.4-0.2-0.7-0.2z"/>
				<path id="&lt;Path&gt;" class="s0" d="m284.2 219.5c0.5 0.7 2.2 1.6 2.5 0.4 0.1-0.3 0.1-0.8-0.5-1-0.3-0.1-0.3-0.2-0.4-0.3-0.3 0-0.6-0.1-0.8-0.1-1.3 0.1-0.8 0.9-0.8 1z"/>
				<path id="&lt;Path&gt;" class="s0" d="m284.5 217.4q0-0.1 0.1-0.2c0-0.3-0.2-0.6-0.4-0.7l-0.1-0.1h-0.1c0.1 0.6 0.3 0.9 0.5 1z"/>
				<path id="&lt;Path&gt;" class="s0" d="m291.9 219.3c0.3-0.1 0.4-0.2 0.7-0.2 0.7 0.1 1.2 0.8 1.9 1q0 0 0.1 0 0.3 0.1 0.4-0.1c0.5-0.6-0.7-1.8-0.7-1.8q-0.1-0.1-0.2-0.1c-0.1 0-0.3 0-0.7 0-0.5 0-0.9-0.3-1.3-0.4-0.6 0.1-1 0.4-1.5 0.3-1-0.1-1-0.1-1.3 0q0 0-0.1 0 0 0 0 0c0 0-0.9 0.7-0.7 1.1 0.3 0.1 0.6-0.1 0.9-0.1 0.3 0 0.4 0.3 0.7 0.4q0 0 0 0c0.2 0 0.4-0.1 0.6-0.2 0.2-0.1 0.3-0.2 0.6-0.1 0.6 0.2 0.6 0.2 0.6 0.2z"/>
				<path id="&lt;Path&gt;" class="s0" d="m293.9 214.8c-0.4 0-1.1 0.4-1 0.6 0.1 0.2 1.4 0.5 1.6-0.2q0.1-0.1 0.1-0.2c-0.2 0-0.4-0.1-0.5-0.1q0-0.1-0.2-0.1z"/>
				<path id="&lt;Path&gt;" class="s0" d="m265.7 234c-1.8-0.6-2-0.9-2.3-1.3-0.3-0.4-0.3-0.4-1.2-0.5-1.2-0.1-2.1-1-3.1-1.5-0.7-0.3-1.2-0.3-1.5-0.3-0.1 0-0.1 0-0.3 0-0.3 1.2-1.9 1.1-4.6 0.9-0.1 0.1-2.7-0.4-4.4-0.8-0.7 0.5-1.6 1.7-1.6 1.7 0.9 0.2 1.4 1.2 2.3 1.3q0 0 0 0 0 0 0 0 0 0 0 0 0 0 0 0 0 0 0 0 0 0 0 0 0 0 0 0 0 0 0 0c0.4-0.1 0.5-0.1 1-0.2 0.9-0.2 1.3-0.1 2.2 0.1 0.8 0.2 1.6-0.2 2.4-0.2 1.1-0.1 2.1 0.6 3.3 0.5 0.6 0 1 0.1 1.3 0.2 1.3 0.4 2.6 0.2 3.9 0.4 1 0.2 1.8 0.8 2.8 0.8 0.9 0 1.7-0.9 1.9-1.2q0.1-0.1 0.1-0.2c0.3-1-2.6-0.3-2.7-0.2-0.4 0.2 0.6 0.6 1.2 0.7v0.1c-0.1 0-0.1-0.1-0.7-0.3z"/>
				<path id="&lt;Path&gt;" class="s0" d="m269.8 233.4c-0.6 0-1.4 1-1.1 1.4q0.1 0.2 0.4 0.2c0.2 0 0.2 0 0.3 0 0.1-0.1 0.1-0.1 0.2-0.1q0 0 0 0c0.1-0.1 0.4-0.4 0.5-0.9 0-0.1 0.1-0.6-0.3-0.6z"/>
				<path id="&lt;Path&gt;" class="s0" d="m273.3 234.1c-0.3 0-0.6-0.3-0.9-0.4-0.2-0.1-1.4-0.2-1.7 0.4-0.1 0-0.4 0.6-0.2 1.1 0 0 0 0.1 0.6 0.1 1.1 0.1 1.6-0.2 2.1-0.5 0.6-0.3 0.7-0.4 1.1-0.5-0.1 0.3 0.3 0.3 1 0.2 0-0.1 0-0.2 0.1-0.2 0.1-0.1 0.3-0.1 0.4-0.2 0.1-0.1 0.1-0.4-0.1-0.6 0 0 0 0-0.3 0-0.2 0-0.2-0.2-0.3-0.2q0 0 0 0c0 0 0 0-0.4 0.1-0.3 0-0.4-0.1-0.7-0.4-0.3-0.2-0.3-0.2-0.5-0.3-0.2 0-0.4 0.3-0.4 0.5 0.2 0.4 0.7 0.4 0.9 0.8-0.6 0.1-0.6 0.1-0.7 0.1z"/>
				<path id="&lt;Path&gt;" class="s0" d="m275.7 236.9c0.2 0.1 0.2 0.1 0.7 0 0.4 0 0.6 0.2 0.9 0.6 0.3 0.2 0.4 0.3 0.8 0.5 0.7 0.3 1 0.2 1.1 0 0.2-0.3-0.2-0.8-0.2-0.9-0.3-0.4-0.7-0.6-1-0.8-0.1-0.1-0.2-0.2-0.3-0.3-0.2-0.2-0.2-0.2-1-0.2-1.3 0-1.3 0.6-1.3 0.7q0 0.2 0.3 0.4z"/>
				<path id="&lt;Path&gt;" class="s0" d="m280.4 234.5c1.3-0.2 1.3-0.2 1.3-0.1 0.2 0.1 0.4 0.2 0.6 0.1q0.1 0 0.1 0c0.3-0.1 0.5-0.3 0.7-0.4 0.5-0.1 1 0 1.4-0.2 0.2-0.1 0.9-1.3 0.9-1.3 0.1-0.2 0-0.3-0.1-0.3-0.5 0-0.4 0.7-0.7 0.9-1.1 0.6-1.2 0.6-1.6 0.3-0.1-0.1-0.2-0.1-0.2-0.1-0.3 0-0.5 0.3-0.8 0.3-0.8 0-1.4-0.5-2.1-0.5q-0.2 0-0.3 0c-0.5 0-1.5 0.2-1.7 0.3-0.7 0.5-0.5 1.3-0.5 1.3 0.3 0.3 0.7 0.1 1.1-0.1 0.2-0.2 0.4-0.2 0.7-0.1 0.3 0 0.7 0.1 1.2-0.1z"/>
				<path id="&lt;Path&gt;" class="s0" d="m283.2 237.6q0 0 0 0c0.3-0.1 0.4-0.3 0.6-0.4 0.4-0.2 0.7 0 1.1-0.2q0 0 0.1-0.1c1.1-0.7 1.9-1.7 2.9-2.5 1-0.7 1.7-0.9 2.4-1.2 1.4-0.5 1.4-0.5 1.5-0.7 0 0 0.1-0.4-0.3-0.4 0 0-1.1 0.1-1.4 0.2-0.7 0.2-1.3 0.5-1.9 0.6-0.5 0.1-0.9 0-1.3 0.2-0.1 0.1-0.1 0.1-0.4 0.6-0.2 0.2-0.2 0.2-0.7 0.4-1.2 0.2-2.9 1.6-2.9 1.6-0.4 0.4-0.1 1.7-0.1 1.7 0 0 0.1 0.3 0.4 0.2z"/>
				<path id="&lt;Path&gt;" class="s0" d="m307.3 228.7c0.1-0.3 0-0.4-0.1-0.5-0.1 0-0.5-0.2-0.8-0.2-0.2 0-0.4 0.1-0.6 0.4 0 0-0.7 0.9-1 1.3 0 0.1-0.1 0.3 0 0.4 0.2 0.3 1.6-0.4 1.6-0.4 0.3-0.2 0.8-0.5 0.9-1z"/>
				<path id="&lt;Path&gt;" class="s0" d="m275.5 204.6c-0.3 0-0.4 0.1-0.6 0.2-0.4 0.3-0.4 0.8-0.7 1.1-0.3 0.3-0.8 0.1-1.2 0.4 0 0-0.7 2-0.9 2.7-0.1 0.5 0 1-0.2 1.4 0 0.1-0.1 0.1-0.2 0.1-0.9 0.1-0.9 0.4-0.8 1.2 0.1 1.1 0.1 1.9-0.1 2.3 0 0-0.6 1.6-1 2-0.1 0.1-0.3 0.2-0.3 0.4-0.1 0.1 0.3 2.1 0.3 2.3q0.1 0 0.1 0 0.1-0.1 0.1-0.1c0.8-1.2 1.6 0.8 0.5 4.4-0.3 1.1-0.3 1.2-0.2 1.6 2.6-0.2 2.6-0.2 2.7-0.4 0.2-0.5 0.4-1.6 0.1-3.6-0.4-4.1 0.5-4.3 1.8-4.6-0.1 2.2 0.1 2.7 0.6 4 0.3 0.7 0.1 1.4 0.1 2.2 1.1 0.2 1.5 0 1.9-0.5 0.4-0.4 0.6-0.7 1.3-0.7 0.5 0 0.6-0.1 0.7-0.3 0.2-1.2-1.4-1.3-1.3-2.4 0-1.2 0-1.3-0.3-2.3-0.3-0.7-0.5-1-1.3-1.3-0.5-0.2-0.5-0.4-0.4-0.8 0.5-0.2 1-0.3 1.4-0.6 0.7-0.4 1-1.2 1.6-1.8 0.5-0.4 1.2-0.2 1.8-0.6 0-0.1 0.1-0.2 0.2-0.3 0.1-1 0.1-1-4.9 0.6-0.7 0.2-0.8 1-1.4 1.3-0.2 0.1-1 0.3-1.2-0.1l-0.5-1.8c0-0.1 0-2.1 0-2.2 0.1-0.9 0.4-1.3 2.3-1.2 1.2 0 2.4-0.2 3.6-0.1 1.8 0 2 0.2 2.5 0.5 0.2 0.1 0.6 0.4 0.9 0.3 1.7-0.5 3-3.2 3.2-3.5 0.1-0.5 0.1-1-0.2-1.2-1 0.2-1.3 1.1-1.9 1.7-0.6 0.5-0.6 0.5-2.5 0.5-0.4 0-0.6 0.3-0.9 0.3-0.6 0-1-0.2-1.6-0.3-1.1-0.1-1.9-1.1-3.1-0.8z"/>
				<path id="&lt;Path&gt;" class="s0" d="m278.7 188.9c-1.3 1-1.6 1.4-1.8 1.7q-0.1 0.1-0.2 0.2c-0.4 0.6-0.4 1-0.3 1.3 0.5-0.2 0.4-0.8 0.8-1.1 0.4-0.4 1.1-0.4 1.6-0.8q0.1-0.1 0.1-0.1c0.6-0.6 0.8-1.3 1.3-1.9 0.5-0.7 0.8-0.9 1.2-1 0.3-0.1 0.7-0.2 0.8-0.4 0.1-0.2 0-0.3-0.2-0.5-0.1 0-0.1 0-0.3-0.3 0-0.1-0.2-0.1-0.2-0.2-0.1-0.4 0.1-0.7 0-1q-0.1 0-0.2 0c-0.3 0-0.7 0.8-0.5 1.3 0.1 0.2 0.1 0.2 0 0.4-1.1 1.5-1.1 1.5-2.1 2.4z"/>
				<path id="&lt;Path&gt;" class="s0" d="m282 174.3c-0.7 0.3-0.1 3.8 1.2 4.1 0.2-0.4 0.2-0.4 0.5-0.2 0 0.2 0 0.4 0 0.6 0.1-0.4 0.3-0.5 0.5-0.4 0 0.4-0.4 0.4-0.4 0.7-0.1 0.3 0.1 0.5 0.1 0.8-0.1 0-0.1 0.1-0.1 0.1-1 0.1-1 0.1-1 0.2-0.2 0.3-0.1 0.5 0 0.6 0.2 0.5 0.7 0.8 0.9 1.2 0.3 0.4 0.3 0.9 0.6 1.2 0.1 0.2 0.1 0.2 0.9 0.1 0.3-1.3 0.3-1.3-0.6-2.7-0.3-0.5 1.1-0.9 1.1-0.9 0.8 0.1 1 0.7 1.1 1 0.3 0.6 0.3 0.6 0.7 0.6 0-0.5-0.7-0.9-0.5-1.6 0.2 0.1 0.2 0.1 2 2 1 1.1 1 1.1 1.2 1.2 1 0.7 1.1 0.7 0.8 1.2-0.1-0.1-0.2-0.3-0.3-0.4-0.6-0.4-0.4 1.4-0.4 1.9 0.1 0.4 0.6 0.3 0.7 0.7 0.1 0.3-0.1 0.8 0.1 1.1 0.1 0.4 0.8 0.9 1 0.4 0.3-0.8-0.5-1.6-0.2-2.4 0.5-0.1 0.8 0.8 1.4 0.5 0.2-0.6-0.5-0.8-0.6-1.3 0-0.1-0.2-1.2-0.3-1.5q0-0.1-0.1-0.1c-0.2-0.7-0.4-0.7-0.6-0.8q0 0 0 0 0 0 0 0 0 0 0 0 0 0 0 0 0 0 0 0 0 0 0 0 0 0 0 0c0 0 0 0-0.1 0.1-1.2 0.2-1.7 0.3-1.5-0.4 0.3-0.9 0.4-1.1-0.7-1.4q-0.2-0.1-0.4-0.1 0-0.1 0-0.2c0.4-0.1 0.4-0.1 1 0.2 0.3 0.1 1.1-0.2 0.7-0.9-0.1-0.1-0.2-0.2-0.3-0.2-0.3-0.1-0.5 0.3-0.8 0.2-0.4 0-0.6-0.3-1-0.3-0.2 0-0.2 0.1-0.3 0.5-0.2 0-0.2 0-0.4-0.1 0-0.7-0.1-0.9-0.5-1.1-0.5-0.2-0.8 0.3-1.2 0.3-0.3 0-0.4-0.2-0.4-0.2-0.2-0.3-0.1-0.7-0.3-1-0.1-0.1-0.3-0.1-0.4-0.3 0 0 0-0.2 0-0.3 0.1-1.5 0.4-1.6 0.9-1.7q0.3 0 0.4-0.2c0 0 0.7-2 0.7-2.3q0 0 0-0.1c-0.1-0.4-0.4-0.7-0.5-1.1-0.1-0.4 0.3-0.8 0.2-1.3 0 0-0.2-0.6-0.7-0.6q0 0 0 0.1 0.1 0.1 0.1 0.2c-0.3 0.3-0.7 0.2-0.8-0.1-0.1-0.2-0.3-0.5-1.4-0.5-0.4 0-0.7 0.1-0.8 0.5-0.7 2.1-0.6 2.2-0.3 2.7 0.2 0.2 0.3 2.3 0.2 2.4-0.3 0.5-0.5-1-1.1-0.7z"/>
				<path id="&lt;Path&gt;" class="s0" d="m286.1 182.7c0.3-0.1 0.4 0.2 0.7 0.1 0.1-0.2-0.2-0.6-0.5-0.8-0.2 0.5-0.6 0.8-0.7 1.3-0.1 0.2-0.1 0.2 0.1 0.5 0.2 0.3 0.2 0.3 0.2 0.3 0.3 0.3 0.3 0.3 0.3 0.3 0 0.3-0.2 0.6-0.2 0.9 0.2 0.5 0.2 0.5 0 0.8 0 0.1-0.2 0.3-0.2 0.7q0 0.1 0 0.1c0.3 0 0.4-0.4 0.7-0.3 0.1 0 0.2 0.1 0.2 0.3 0 0.3 0.4 0.3 0.4 0.3 0.2-0.1 0.2-0.4 0.3-0.3 0.1 0 0.1 0.4 0 0.5 0 0.1-0.1 0.1-0.2 0.2-0.9 0.2-0.5 1.2-0.4 1.3 0 0 0.1 0.1 0.2 0.2 0.2 0.1 0.4 0.1 0.7 0.3 0.1 0 0.2 0.2 0.4 0.3 0.1 0.1 0.3 0 0.4-0.1 0.1-0.1 0.2-0.2 0.2-0.3 0.2-0.4 0.2-0.9 0.4-1.3 0.1-0.3 0.4-0.6 0.5-0.9 0 0 0.4-1.5 0.4-1.7 0.1-0.4-0.2-0.3-0.2-0.3-0.2 0.1-0.2 0.3-0.3 0.7-0.1 0.2-0.1 0.2-0.2 0.4-0.2 0.3-0.5 0.5-0.6 0.9-0.3 0.8-0.3 0.8-0.3 0.8-0.1-0.4-0.1-0.8 0.5-1.7 0-0.1 0.1-0.3 0.1-0.3-0.3-0.7-1.3 0.9-1.5 0.2 0-0.2 0.1-0.3 0.3-0.5 0.6-0.5 0.6-1.1 0.4-1.3-0.1 0-0.3-0.1-0.4-0.1-0.5 0-1-0.2-1-0.2-0.9-0.3-0.9-0.7-0.9-0.7 0-0.2 0-0.4 0.2-0.6z"/>
				<path id="&lt;Path&gt;" class="s0" d="m288.2 183.8c0.2 0.1 0.3-0.1 0.4-0.1 0.1-0.1 0.2-0.1 0.3 0 0.2 0.1 0.3 0.2 0.4 0.4 0.2 0.2 0.5 0 0.6-0.3 0-0.4-0.5-1.2-0.5-1.2-0.1-0.1-0.4-0.3-0.8-0.4-0.1 0-0.2 0-0.2 0.1 0 0.1 0 0.2 0 0.2-0.1 0.3-0.2 0.5-0.3 0.7-0.1 0.3-0.1 0.4-0.1 0.4 0.1 0.2 0.2 0.2 0.2 0.2z"/>
				<path id="&lt;Path&gt;" class="s0" d="m294.3 191.5c0-0.2 0-0.4-0.1-0.5 0-0.2-0.4-0.2-0.4-0.5-0.1-0.2 0.1-0.4 0.1-0.7-0.1-0.1-0.1-0.2-0.2-0.3 0-0.2-0.2-0.3-0.3-0.5-0.2-0.4 0.5-0.7 0.2-1.1-0.3-0.4-0.3 0.6-0.7 0.5q0-0.3 0-0.8c0.1-0.6 0.1-0.6 0-0.7-0.3 0.1-0.3 0.1-0.5 1.1-0.7 0.4 0 1.1-0.1 1.7-0.2-0.1-0.4 0-0.4 0.2-0.1-0.1-0.2-0.1-0.3-0.3-0.2-0.3-0.5-0.5-0.7-0.4q0 0.1 0 0.1c-0.1 0.1-0.1 0.1 0.1 0.5 0.1 0.1 0.1 0.2-0.1 0.5q-0.1 0.1-0.1 0.2c-0.1 0.3-0.7 0.1-0.8 0.5 0 0.1-0.1 0.3-0.3 0.3-0.1 0-0.4-0.1-0.4-0.6-0.1-0.2-0.1-0.4-0.7-0.2-0.3 0.1-0.3 0.1-0.8 0.7-0.2 0.3-0.3 0.3-0.6 0.2-1.1-0.1-1.7 1.9-1.7 2.2 0.1 0.6 1 0.5 1.2-0.4 0.1-0.5 0.1-0.8 0.3-0.8 0.5 0.2 0.2 0.7 0.4 1 0.2-0.2 0.2-0.2 0.5-0.5 0.2 0.2 0.3 0.2 0.4 0.2 0.1-0.3 0-0.6 0.2-0.9 0.9 0.4 1.3 0.6 0.9 1.3-0.4 0.8 0 1.7 0 1.7 0.1 0.1 0.2 0.4 0.4 0.6 0.4 0.3 0.8 0.3 1.2 0.5 0.4 0.1 0.2 0.6 0.5 0.8q0 0 0 0c0.2 0 0.8-0.7 0.8-1.4 0-0.4-0.3-0.8-0.2-1.2 0-0.3 0-0.3 0.5-0.4 0.1-0.1 0.1-0.1 0.2-0.1 0.3 0.4-0.2 0.9 0.1 1.3 0.2 0.3 0.5 0.1 0.7-0.4l0.3-1.5c0.1-0.4 0-0.7 0-1.1 0.1-0.3 0.3-0.5 0.4-0.8z"/>
				<path id="&lt;Path&gt;" class="s0" d="m291 187.6c0-0.2-0.2-0.3-0.2-0.3-0.3 0-0.9 0.3-1.2 0.7-0.2 0.2-0.2 0.4-0.1 0.8 0.1 0 0.2 0 0.3 0q0-0.1 0-0.1c0.9 0.2 1.2-1.1 1.2-1.1z"/>
				<path id="&lt;Path&gt;" class="s0" d="m291 187.6z"/>
				<path id="&lt;Path&gt;" class="s0" d="m286.4 194.8c0.1-0.2-0.1-0.5-0.6-0.5-0.5 0-0.5 0.3-0.5 0.5 0.1 0.4 0.8 0.5 1.1 0z"/>
				<path id="&lt;Path&gt;" class="s0" d="m283.5 195.8c0 0.1 0 0.2-0.1 0.5 0 0.3 0 0.3-0.1 0.5 0.3 0 1.1-0.6 1.2-0.9 0.1-0.2-0.2-0.3-0.5-0.3q-0.4 0-0.5 0.2z"/>
				<path id="&lt;Path&gt;" class="s0" d="m281.3 197.8c-0.1 0.1 0 0.2 0 0.3 0.3 0 0.4-0.1 0.5-0.2 0.1 0 0.1 0 0.5-0.7q0.1 0 0.1 0c-0.3 0-0.4 0-0.6 0.2 0 0-0.4 0.3-0.5 0.4z"/>
				<path id="&lt;Path&gt;" class="s0" d="m306.1 301.6c-0.2 0.1-0.3 0.1-0.4 0.1q0 0 0 0c0.2-0.6 0.2-0.6 0.2-0.7-0.6 0.3-2.4 2-3 2.6q-0.8 0.8-1.5 0.9c-0.2 0-0.4 0.1-0.6 0.2-0.7 0.5-1.1 1.2-1.8 1.5-0.3 0.2-0.4 0.2-0.7 0.3-0.5 0.1-0.6 0.1-1.8 0.9-1.7 1.2-2.5 2-2.9 2.4q0 0 0 0c-0.1 0.3-0.2 0.8-0.1 1.2 0.1 1 1.1 0.4 1.3 0.3 0.4-0.3 0.4-0.3 3.7-3.4 1-0.9 2.4-1.2 3.4-2 0.9-0.6 3.9-3.9 3.9-4 0.1-0.1 0.2-0.2 0.3-0.3z"/>
				<path id="&lt;Path&gt;" class="s0" d="m313.7 296.2c0 0 1.5-1.7-0.6-1.2-0.7 0.2-0.3-0.3-0.1-0.7 0.4-0.6 0.4-0.7 0.4-0.9-0.3-0.3-0.6 0.4-0.9 0.4-0.1-0.1 0-0.2 0.4-1.1 1.1-2.3 1.1-2.7 1-2.9-0.7 0.1-1.1 1.3-1.7 3.7-0.7 2.1-1.4 2.9-2.1 3.5-0.7 0.8-1 1-1.3 1.5-0.3 0.5-0.2 1.1-0.5 1.5-0.5 0.7-1.2 1.2-1.7 2 0.3-0.2 0.6-0.5 0.9-0.7 0.4-0.3 0.4-0.3 3.7-3.3 0.7-0.7 1.8-1 2.5-1.8z"/>
				<path id="&lt;Path&gt;" class="s0" d="m209.9 355.2c-0.4-0.7-0.7-1.1-2.8-1.3-0.2-0.1-0.4-0.1-0.6-0.1-0.9-0.1-1.9-0.1-2.6-0.1-0.2 0-23.8 1.6-29.8 3.1-1.6 0.5-2.2 0.6-4-1.1 0.1-0.3 0.3-0.8 0.4-1.1-6.6-1.2-10.4-1.1-29.5 0.1 13.7 3.3 27.9 5.1 42.6 5.1 11.8 0 23.3-1.1 34.4-3.3q-0.5 0-1.1-0.1c-2.3-0.5-5.2 1.6-7-1.2z"/>
				<path id="&lt;Path&gt;" class="s0" d="m296.3 56.9c2.9 3.2 9.6 10.8 11.1 15.4 5.7-12.5-7.5-17.8-11.2-26.8q-1.6-1.3-3.2-2.5c1.2 4.6-0.3 9.9 3.3 13.9z"/>
				<path id="&lt;Compound Path&gt;" fill-rule="evenodd" class="s0" d="m31.1 249.9c0 0-3.7-15.1-5-19.1-1.6-5.3-7.9-7.2-9.1-12.7-1.2-5.6 2.7-11.5-1.3-16.9-0.9 0.2-2.2 0.2-3.2 0.1-0.4-0.9-1-2-1.5-2.9-0.2 0.1-0.2 0.2-3.8 2.1q-0.9-8.9-0.9-18c0-26 5.6-50.7 15.7-73 5.9-3.8 6.1-3.6 7.2-2.8-0.2 0.5-0.2 0.5 0.5 15.4 3 0.7 3 0.7 4.5 2.5 0.5 0 1.1-0.1 1.6-0.1 1.1-1.9 1.4-4.1 3-5.8 0.4 0 1.1 0.1 1.6 0.1 0.5 1.4 3.8 3.1 9.9 5.1 0.7-0.6 1.7-1.5 2.5-2.1 7.1 6.4 7.6-11.4 13.9-14.8-0.3-0.4-0.8-0.8-1.1-1.2-2.5 1.6-7.6 2.6-10.9-0.4-0.6 1-0.6 1-4 2.9 1.3-12.4 1.3-12.4 2-13.4 1-0.1 2.3-0.6 3.2-1.1-0.1-0.5-0.2-1.1-0.3-1.6-5.1 1.4-5.1 1.4-6.2 1-0.3 0.4-0.7 1-0.9 1.4-0.5-0.1-1.2-0.1-1.6-0.2-2.4 3.4-3.3 7.6-5.9 10.9 0-3.7 0.3-5 0.8-6.6-0.9-1.3-1.5-2.1 0.6-7.7-0.2-0.3-0.2-0.3-1.2-8.7-0.4-0.2-1-0.5-1.4-0.8-1.7 4.9 2.2 10-0.7 14.8q0 0 0 0 0 0 0 0 0 0 0 0 0 0 0 0 0 0 0 0 0 0 0 0 0 0 0 0c0 0 0 0-1-1.1-1 3.4-1 3.4-2.1 4.7-0.4 0-1.1 0-1.6 0l0.8-14.4c6.5-9.9 13.9-19.1 22.2-27.5 1-0.2 1.6 0.2 3.1 1 2.5-2.1 3.7-5.3 6.3-7.4 0.4 0.3 0.9 0.6 1.3 0.9 0.6-1.5 0.6-1.5 7.4-5.6 0-0.5 0-1.1 0.1-1.6-1 0-2.3-0.4-3-1q0 0 0.1-0.1 9.6-7.7 20.3-14.1c0.4 0.8 0.9 1.1 2.2 1.6-1.7 5-4.8 3.2-6.5 2.3-0.5 0.8-1.1 2-1.6 2.9 0.2 0.5 0.4 1.1 0.6 1.5 3.9-1.8 7.7-3.8 11.7-5.4 0 0.5 0 1.2 0 1.6 0 0 3.8-3.9 7-1.1 1.5-0.3 3.1 0 4.5-0.8 0.1-0.5 0.3-1.2 0.4-1.7 1.9 0.2 3.9 0.4 9 4 3.1-3.9 3.1-3.9 2.8-5 0.4-0.3 0.8-0.8 1.1-1.1 1.4 0.9 2.5 2.4 4 3.1 0.6-0.9 1.1-2.1 1.4-3 7.4-2.6 11.6-3.2 13.1-3.4 0.2 0.4 0.5 1 0.7 1.4 3.5-1.7 7.6-1.6 11-3.8-0.5-2.1 0.6-4.2 0.2-6.3 3.3-3.5 5.4-2.8 6.3-2.5 0 0.1-6.5 10.5-7.3 14.5 4.4 0.7 4.8 0.4 10.1-5.9 0.4 0.9 1 2.1 1.5 3 1-0.1 2.2-0.6 3-1.1-0.1-3-0.1-3-3.4-4.4-0.1 0-4.1-2.3 0.5-5.3 0 0.5-0.1 1.1-0.1 1.5 0.5 0.3 1.1 0.5 1.6 0.8 0.4-0.3 1-0.5 1.4-0.8 0-0.5-0.1-1.1-0.1-1.6 0.9-0.1 2.2 0 3 0.3-0.1 1.2 0.2 2.8 0.7 3.8 2.9 0.3 3.1-0.5 3.8-2.4-1.4-2-1.7-2.2-2.9-3.7 1.2-1 1.2-1 6.6-1.7 0 0 2.4-3 12.5-6q9.1 0.4 18 1.7c-7.2 3.4-7.2 3.5-9.9 5.3 0.3 0.4 0.6 1 0.8 1.4 0.1 0 5.5 0.7 7.7-2.3 1.8 1.1 1.9 1.2 4.5 1q0 0 0 0 0 0 0 0 0 0 0 0 0 0 0 0 0 0 0 0 0 0 0 0 0 0 0 0c0 0 0 0 1.1-0.2 1 0.2 2.1 0.9 2.7 1.6 7.7 0.4 15.2 5.6 23.1 1.3-0.7-0.6-1.2-1-1.5-1.4 18.1 5.9 34.9 14.5 49.9 25.5q-0.1 0.5-0.3 1c-3.4-1.6-3.4-1.6-7.2 1.3 0 0.5 0.1 1.1 0.1 1.6-3.9 1.8-7.9 0.1-11.8 0.5-2.1 4.9-6.3 8.5-8.4 13.3 0.2 0.5 0.5 1 0.7 1.5 13.9 1.7 13.9 1.7 14.8 1.2 14.5 22.6 6.6 26.6-1.1 30.6 0.4 1.2 0.9 2.9 1.3 4.2-6 7.5 11.7 19.7 2.1 20.3-4.2-8.2-4.2-8.2-6.8-9.2 0.2-1.6 1.4-2.9 1.3-4.6-0.5-0.4-1.1-0.9-1.6-1.2-1 0.4-2.2 1-3.2 1.4-0.5-0.2-1.2-0.4-1.7-0.6-0.1-0.5-0.1-1.2-0.3-1.6-2-3.4-17-3.7-19.1 6.3 4.9 3.8 4.9 3.8 20.4 2.3-1.2 4-5.6 4.2-8 6.7 1 3.9 1.8 4 4.9 4.3 3.5 0.4 7.8 10.8 5.9 20.3-2 10.5-14.1 9.8-19.1 17.1-9.6 0-13.9 0-7.2 9.1 9.7 13.3 9.5 14.3 5.1 18-2.8 2.4-2.8 2.4-4.2 5.6-8.7 3-8.5-11.4-17-9.5-2.7 6.7 3.3 10.9 4.6 16.5 8.4 2.5 8.6 5.6 9.1 14.8-8.4-4.7-20.1-29.1-20.2-29.3 1.1-1.6 2.9-2.3 4.1-3.7 0-0.1-2.3-11.1-8.6-11.2-0.2 0.9-0.8 2.1-1.6 2.8-0.6-1.4-8.9-11.6-12.5-13.1-0.1 0.4-0.3 1-0.5 1.5-1 0.1-2.4 0.2-3.4 0.2-7.6 9.6-7.6 9.6-11.4 10.8-0.7 14.7-1 18.6-11.3 26.2-8.8-1.5-18.7-31.7-18.7-37.4-0.1-5-0.4-5.2-2.1-6.3-0.9 1.7-1 2-3.2 3.5-5.9-3.7-5.9-3.7-6.5-5 0.8-0.7 2.1-1.7 3-2.4-5.1-0.8-8.7-6.1-14.5-5-5.5 1.1-5.5 1.1-17.1-1.3-0.6-0.2-1.4-0.5-2-0.8-0.5-1.1-1.1-2.5-1.7-3.6-9.6 0.6-12.9-12-22.7-11.1-0.3 0.4-0.6 0.9-0.9 1.3 5.3 12.9 5.3 12.9 8.6 13.3 0.5 1.6 0.5 3.3 1.4 4.8 4.8 0.9 6.9-1.3 10.9-6 0.5 0.1 1.1 0.2 1.6 0.3-0.2 0.5-0.3 1.1-0.4 1.6 3.8 3.2 7.9 5.9 11.8 9-2.1 10.8-35.9 28.2-45.6 28.7-2.4-3.2-18.9-46.6-19-46.9-0.5-0.2-1.2-0.4-1.7-0.5-1.3 3.8-1.2 4.6-0.2 11.4 5.9 13.2 13 25.8 18.3 39.2 18.1-5.4 20.5-5.1 21.3-5-1.2 4.3-1 8.9-2.5 13.1-4.8 13.7-25.2 16.7-23.7 34.7 2.6 31.1 2.6 31.1-3.6 37 0.1 4.8 3.3 8.8 3.3 13.5-0.7 0.7-1.8 1.6-2.5 2.3 1.3 3.8 2.5 20.4-3.8 21.1q0 0 0 0 0 0 0 0 0 0 0 0 0 0 0 0 0 0 0 0 0 0 0 0-0.1 0-0.1 0c0 0 0 0-1 0.9-0.3-0.2-29-30.7-31.7-49.2zm87.7-215.4c0.3 0.1 0.6 0.3 0.9 0.4 0.2 0.1 0.4 0.1 0.5 0.1q0 0 0.1 0 0 0 0 0c-0.5-0.1-1-0.3-1.5-0.5z"/>
			</g>
		</g>
	</g>
</svg>